solid ASCII
  facet normal 9.994295e-01 -3.377388e-02 0.000000e+00
    outer loop
      vertex   9.977186e-03 -6.750975e-04 1.000000e-01
      vertex   1.000000e-02 0.000000e+00 0.000000e+00
      vertex   1.000000e-02 0.000000e+00 1.000000e-01
    endloop
  endfacet
  facet normal 9.994295e-01 3.377388e-02 0.000000e+00
    outer loop
      vertex   1.000000e-02 0.000000e+00 1.000000e-01
      vertex   1.000000e-02 0.000000e+00 0.000000e+00
      vertex   9.977186e-03 6.750975e-04 0.000000e+00
    endloop
  endfacet
  facet normal 9.994295e-01 3.377388e-02 0.000000e+00
    outer loop
      vertex   1.000000e-02 0.000000e+00 1.000000e-01
      vertex   9.977186e-03 6.750975e-04 0.000000e+00
      vertex   9.977186e-03 6.750975e-04 1.000000e-01
    endloop
  endfacet
  facet normal 9.948693e-01 1.011690e-01 0.000000e+00
    outer loop
      vertex   9.977186e-03 6.750975e-04 1.000000e-01
      vertex   9.977186e-03 6.750975e-04 0.000000e+00
      vertex   9.908848e-03 1.347115e-03 0.000000e+00
    endloop
  endfacet
  facet normal 9.948693e-01 1.011690e-01 0.000000e+00
    outer loop
      vertex   9.977186e-03 6.750975e-04 1.000000e-01
      vertex   9.908848e-03 1.347115e-03 0.000000e+00
      vertex   9.908848e-03 1.347115e-03 1.000000e-01
    endloop
  endfacet
  facet normal 9.857698e-01 1.681008e-01 0.000000e+00
    outer loop
      vertex   9.908848e-03 1.347115e-03 1.000000e-01
      vertex   9.908848e-03 1.347115e-03 0.000000e+00
      vertex   9.795299e-03 2.012985e-03 0.000000e+00
    endloop
  endfacet
  facet normal 9.857698e-01 1.681008e-01 0.000000e+00
    outer loop
      vertex   9.908848e-03 1.347115e-03 1.000000e-01
      vertex   9.795299e-03 2.012985e-03 0.000000e+00
      vertex   9.795299e-03 2.012985e-03 1.000000e-01
    endloop
  endfacet
  facet normal 9.721725e-01 2.342660e-01 0.000000e+00
    outer loop
      vertex   9.795299e-03 2.012985e-03 1.000000e-01
      vertex   9.795299e-03 2.012985e-03 0.000000e+00
      vertex   9.637057e-03 2.669671e-03 0.000000e+00
    endloop
  endfacet
  facet normal 9.721725e-01 2.342660e-01 0.000000e+00
    outer loop
      vertex   9.795299e-03 2.012985e-03 1.000000e-01
      vertex   9.637057e-03 2.669671e-03 0.000000e+00
      vertex   9.637057e-03 2.669671e-03 1.000000e-01
    endloop
  endfacet
  facet normal 9.541392e-01 2.993632e-01 0.000000e+00
    outer loop
      vertex   9.637057e-03 2.669671e-03 1.000000e-01
      vertex   9.637057e-03 2.669671e-03 0.000000e+00
      vertex   9.434842e-03 3.314176e-03 0.000000e+00
    endloop
  endfacet
  facet normal 9.541392e-01 2.993632e-01 0.000000e+00
    outer loop
      vertex   9.637057e-03 2.669671e-03 1.000000e-01
      vertex   9.434842e-03 3.314176e-03 0.000000e+00
      vertex   9.434842e-03 3.314176e-03 1.000000e-01
    endloop
  endfacet
  facet normal 9.317526e-01 3.630937e-01 0.000000e+00
    outer loop
      vertex   9.434842e-03 3.314176e-03 1.000000e-01
      vertex   9.434842e-03 3.314176e-03 0.000000e+00
      vertex   9.189578e-03 3.943559e-03 0.000000e+00
    endloop
  endfacet
  facet normal 9.317526e-01 3.630937e-01 0.000000e+00
    outer loop
      vertex   9.434842e-03 3.314176e-03 1.000000e-01
      vertex   9.189578e-03 3.943559e-03 0.000000e+00
      vertex   9.189578e-03 3.943559e-03 1.000000e-01
    endloop
  endfacet
  facet normal 9.051145e-01 4.251680e-01 0.000000e+00
    outer loop
      vertex   9.189578e-03 3.943559e-03 1.000000e-01
      vertex   9.189578e-03 3.943559e-03 0.000000e+00
      vertex   8.902385e-03 4.554948e-03 0.000000e+00
    endloop
  endfacet
  facet normal 9.051145e-01 4.251680e-01 0.000000e+00
    outer loop
      vertex   9.189578e-03 3.943559e-03 1.000000e-01
      vertex   8.902385e-03 4.554948e-03 0.000000e+00
      vertex   8.902385e-03 4.554948e-03 1.000000e-01
    endloop
  endfacet
  facet normal 8.743467e-01 4.853019e-01 0.000000e+00
    outer loop
      vertex   8.902385e-03 4.554948e-03 1.000000e-01
      vertex   8.902385e-03 4.554948e-03 0.000000e+00
      vertex   8.574572e-03 5.145554e-03 0.000000e+00
    endloop
  endfacet
  facet normal 8.743467e-01 4.853019e-01 0.000000e+00
    outer loop
      vertex   8.902385e-03 4.554948e-03 1.000000e-01
      vertex   8.574572e-03 5.145554e-03 0.000000e+00
      vertex   8.574572e-03 5.145554e-03 1.000000e-01
    endloop
  endfacet
  facet normal 8.395893e-01 5.432218e-01 0.000000e+00
    outer loop
      vertex   8.574572e-03 5.145554e-03 1.000000e-01
      vertex   8.574572e-03 5.145554e-03 0.000000e+00
      vertex   8.207635e-03 5.712682e-03 0.000000e+00
    endloop
  endfacet
  facet normal 8.395893e-01 5.432218e-01 0.000000e+00
    outer loop
      vertex   8.574572e-03 5.145554e-03 1.000000e-01
      vertex   8.207635e-03 5.712682e-03 0.000000e+00
      vertex   8.207635e-03 5.712682e-03 1.000000e-01
    endloop
  endfacet
  facet normal 8.010010e-01 5.986630e-01 0.000000e+00
    outer loop
      vertex   8.207635e-03 5.712682e-03 1.000000e-01
      vertex   8.207635e-03 5.712682e-03 0.000000e+00
      vertex   7.803248e-03 6.253744e-03 0.000000e+00
    endloop
  endfacet
  facet normal 8.010010e-01 5.986630e-01 0.000000e+00
    outer loop
      vertex   8.207635e-03 5.712682e-03 1.000000e-01
      vertex   7.803248e-03 6.253744e-03 0.000000e+00
      vertex   7.803248e-03 6.253744e-03 1.000000e-01
    endloop
  endfacet
  facet normal 7.587580e-01 6.513726e-01 0.000000e+00
    outer loop
      vertex   7.803248e-03 6.253744e-03 1.000000e-01
      vertex   7.803248e-03 6.253744e-03 0.000000e+00
      vertex   7.363257e-03 6.766273e-03 0.000000e+00
    endloop
  endfacet
  facet normal 7.587580e-01 6.513726e-01 0.000000e+00
    outer loop
      vertex   7.803248e-03 6.253744e-03 1.000000e-01
      vertex   7.363257e-03 6.766273e-03 0.000000e+00
      vertex   7.363257e-03 6.766273e-03 1.000000e-01
    endloop
  endfacet
  facet normal 7.130532e-01 7.011099e-01 0.000000e+00
    outer loop
      vertex   7.363257e-03 6.766273e-03 1.000000e-01
      vertex   7.363257e-03 6.766273e-03 0.000000e+00
      vertex   6.889669e-03 7.247928e-03 0.000000e+00
    endloop
  endfacet
  facet normal 7.130532e-01 7.011099e-01 0.000000e+00
    outer loop
      vertex   7.363257e-03 6.766273e-03 1.000000e-01
      vertex   6.889669e-03 7.247928e-03 0.000000e+00
      vertex   6.889669e-03 7.247928e-03 1.000000e-01
    endloop
  endfacet
  facet normal 6.640948e-01 7.476484e-01 0.000000e+00
    outer loop
      vertex   6.889669e-03 7.247928e-03 1.000000e-01
      vertex   6.889669e-03 7.247928e-03 0.000000e+00
      vertex   6.384646e-03 7.696512e-03 0.000000e+00
    endloop
  endfacet
  facet normal 6.640948e-01 7.476484e-01 0.000000e+00
    outer loop
      vertex   6.889669e-03 7.247928e-03 1.000000e-01
      vertex   6.384646e-03 7.696512e-03 0.000000e+00
      vertex   6.384646e-03 7.696512e-03 1.000000e-01
    endloop
  endfacet
  facet normal 6.121058e-01 7.907759e-01 0.000000e+00
    outer loop
      vertex   6.384646e-03 7.696512e-03 1.000000e-01
      vertex   6.384646e-03 7.696512e-03 0.000000e+00
      vertex   5.850490e-03 8.109980e-03 0.000000e+00
    endloop
  endfacet
  facet normal 6.121058e-01 7.907759e-01 0.000000e+00
    outer loop
      vertex   6.384646e-03 7.696512e-03 1.000000e-01
      vertex   5.850490e-03 8.109980e-03 0.000000e+00
      vertex   5.850490e-03 8.109980e-03 1.000000e-01
    endloop
  endfacet
  facet normal 5.573243e-01 8.302949e-01 0.000000e+00
    outer loop
      vertex   5.850490e-03 8.109980e-03 1.000000e-01
      vertex   5.850490e-03 8.109980e-03 0.000000e+00
      vertex   5.289640e-03 8.486443e-03 0.000000e+00
    endloop
  endfacet
  facet normal 5.573243e-01 8.302949e-01 0.000000e+00
    outer loop
      vertex   5.850490e-03 8.109980e-03 1.000000e-01
      vertex   5.289640e-03 8.486443e-03 0.000000e+00
      vertex   5.289640e-03 8.486443e-03 1.000000e-01
    endloop
  endfacet
  facet normal 5.000001e-01 8.660253e-01 0.000000e+00
    outer loop
      vertex   5.289640e-03 8.486443e-03 1.000000e-01
      vertex   5.289640e-03 8.486443e-03 0.000000e+00
      vertex   4.704655e-03 8.824184e-03 0.000000e+00
    endloop
  endfacet
  facet normal 5.000001e-01 8.660253e-01 0.000000e+00
    outer loop
      vertex   5.289640e-03 8.486443e-03 1.000000e-01
      vertex   4.704655e-03 8.824184e-03 0.000000e+00
      vertex   4.704655e-03 8.824184e-03 1.000000e-01
    endloop
  endfacet
  facet normal 4.403945e-01 8.978044e-01 0.000000e+00
    outer loop
      vertex   4.704655e-03 8.824184e-03 1.000000e-01
      vertex   4.704655e-03 8.824184e-03 0.000000e+00
      vertex   4.098203e-03 9.121663e-03 0.000000e+00
    endloop
  endfacet
  facet normal 4.403945e-01 8.978044e-01 0.000000e+00
    outer loop
      vertex   4.704655e-03 8.824184e-03 1.000000e-01
      vertex   4.098203e-03 9.121663e-03 0.000000e+00
      vertex   4.098203e-03 9.121663e-03 1.000000e-01
    endloop
  endfacet
  facet normal 3.787784e-01 9.254874e-01 0.000000e+00
    outer loop
      vertex   4.098203e-03 9.121663e-03 1.000000e-01
      vertex   4.098203e-03 9.121663e-03 0.000000e+00
      vertex   3.473052e-03 9.377521e-03 0.000000e+00
    endloop
  endfacet
  facet normal 3.787784e-01 9.254874e-01 0.000000e+00
    outer loop
      vertex   4.098203e-03 9.121663e-03 1.000000e-01
      vertex   3.473052e-03 9.377521e-03 0.000000e+00
      vertex   3.473052e-03 9.377521e-03 1.000000e-01
    endloop
  endfacet
  facet normal 3.154353e-01 9.489471e-01 0.000000e+00
    outer loop
      vertex   3.473052e-03 9.377521e-03 1.000000e-01
      vertex   3.473052e-03 9.377521e-03 0.000000e+00
      vertex   2.832055e-03 9.590592e-03 0.000000e+00
    endloop
  endfacet
  facet normal 3.154353e-01 9.489471e-01 0.000000e+00
    outer loop
      vertex   3.473052e-03 9.377521e-03 1.000000e-01
      vertex   2.832055e-03 9.590592e-03 0.000000e+00
      vertex   2.832055e-03 9.590592e-03 1.000000e-01
    endloop
  endfacet
  facet normal 2.506529e-01 9.680770e-01 0.000000e+00
    outer loop
      vertex   2.832055e-03 9.590592e-03 1.000000e-01
      vertex   2.832055e-03 9.590592e-03 0.000000e+00
      vertex   2.178136e-03 9.759904e-03 0.000000e+00
    endloop
  endfacet
  facet normal 2.506529e-01 9.680770e-01 0.000000e+00
    outer loop
      vertex   2.832055e-03 9.590592e-03 1.000000e-01
      vertex   2.178136e-03 9.759904e-03 0.000000e+00
      vertex   2.178136e-03 9.759904e-03 1.000000e-01
    endloop
  endfacet
  facet normal 1.847262e-01 9.827900e-01 0.000000e+00
    outer loop
      vertex   2.178136e-03 9.759904e-03 1.000000e-01
      vertex   2.178136e-03 9.759904e-03 0.000000e+00
      vertex   1.514278e-03 9.884683e-03 0.000000e+00
    endloop
  endfacet
  facet normal 1.847262e-01 9.827900e-01 0.000000e+00
    outer loop
      vertex   2.178136e-03 9.759904e-03 1.000000e-01
      vertex   1.514278e-03 9.884683e-03 0.000000e+00
      vertex   1.514278e-03 9.884683e-03 1.000000e-01
    endloop
  endfacet
  facet normal 1.179567e-01 9.930187e-01 0.000000e+00
    outer loop
      vertex   1.514278e-03 9.884683e-03 1.000000e-01
      vertex   1.514278e-03 9.884683e-03 0.000000e+00
      vertex   8.435106e-04 9.964361e-03 0.000000e+00
    endloop
  endfacet
  facet normal 1.179567e-01 9.930187e-01 0.000000e+00
    outer loop
      vertex   1.514278e-03 9.884683e-03 1.000000e-01
      vertex   8.435106e-04 9.964361e-03 0.000000e+00
      vertex   8.435106e-04 9.964361e-03 1.000000e-01
    endloop
  endfacet
  facet normal 5.064891e-02 9.987165e-01 0.000000e+00
    outer loop
      vertex   8.435106e-04 9.964361e-03 1.000000e-01
      vertex   8.435106e-04 9.964361e-03 0.000000e+00
      vertex   1.688948e-04 9.998574e-03 0.000000e+00
    endloop
  endfacet
  facet normal 5.064891e-02 9.987165e-01 0.000000e+00
    outer loop
      vertex   8.435106e-04 9.964361e-03 1.000000e-01
      vertex   1.688948e-04 9.998574e-03 0.000000e+00
      vertex   1.688948e-04 9.998574e-03 1.000000e-01
    endloop
  endfacet
  facet normal -1.688915e-02 9.998574e-01 0.000000e+00
    outer loop
      vertex   1.688948e-04 9.998574e-03 1.000000e-01
      vertex   1.688948e-04 9.998574e-03 0.000000e+00
      vertex   -5.064917e-04 9.987165e-03 0.000000e+00
    endloop
  endfacet
  facet normal -1.688915e-02 9.998574e-01 0.000000e+00
    outer loop
      vertex   1.688948e-04 9.998574e-03 1.000000e-01
      vertex   -5.064917e-04 9.987165e-03 0.000000e+00
      vertex   -5.064917e-04 9.987165e-03 1.000000e-01
    endloop
  endfacet
  facet normal -8.435131e-02 9.964361e-01 0.000000e+00
    outer loop
      vertex   -5.064917e-04 9.987165e-03 1.000000e-01
      vertex   -5.064917e-04 9.987165e-03 0.000000e+00
      vertex   -1.179567e-03 9.930187e-03 0.000000e+00
    endloop
  endfacet
  facet normal -8.435131e-02 9.964361e-01 0.000000e+00
    outer loop
      vertex   -5.064917e-04 9.987165e-03 1.000000e-01
      vertex   -1.179567e-03 9.930187e-03 0.000000e+00
      vertex   -1.179567e-03 9.930187e-03 1.000000e-01
    endloop
  endfacet
  facet normal -1.514279e-01 9.884683e-01 0.000000e+00
    outer loop
      vertex   -1.179567e-03 9.930187e-03 1.000000e-01
      vertex   -1.179567e-03 9.930187e-03 0.000000e+00
      vertex   -1.847261e-03 9.827901e-03 0.000000e+00
    endloop
  endfacet
  facet normal -1.514279e-01 9.884683e-01 0.000000e+00
    outer loop
      vertex   -1.179567e-03 9.930187e-03 1.000000e-01
      vertex   -1.847261e-03 9.827901e-03 0.000000e+00
      vertex   -1.847261e-03 9.827901e-03 1.000000e-01
    endloop
  endfacet
  facet normal -2.178136e-01 9.759904e-01 0.000000e+00
    outer loop
      vertex   -1.847261e-03 9.827901e-03 1.000000e-01
      vertex   -1.847261e-03 9.827901e-03 0.000000e+00
      vertex   -2.506525e-03 9.680771e-03 0.000000e+00
    endloop
  endfacet
  facet normal -2.178136e-01 9.759904e-01 0.000000e+00
    outer loop
      vertex   -1.847261e-03 9.827901e-03 1.000000e-01
      vertex   -2.506525e-03 9.680771e-03 0.000000e+00
      vertex   -2.506525e-03 9.680771e-03 1.000000e-01
    endloop
  endfacet
  facet normal -2.832055e-01 9.590593e-01 0.000000e+00
    outer loop
      vertex   -2.506525e-03 9.680771e-03 1.000000e-01
      vertex   -2.506525e-03 9.680771e-03 0.000000e+00
      vertex   -3.154353e-03 9.489471e-03 0.000000e+00
    endloop
  endfacet
  facet normal -2.832055e-01 9.590593e-01 0.000000e+00
    outer loop
      vertex   -2.506525e-03 9.680771e-03 1.000000e-01
      vertex   -3.154353e-03 9.489471e-03 0.000000e+00
      vertex   -3.154353e-03 9.489471e-03 1.000000e-01
    endloop
  endfacet
  facet normal -3.473051e-01 9.377522e-01 0.000000e+00
    outer loop
      vertex   -3.154353e-03 9.489471e-03 1.000000e-01
      vertex   -3.154353e-03 9.489471e-03 0.000000e+00
      vertex   -3.787789e-03 9.254872e-03 0.000000e+00
    endloop
  endfacet
  facet normal -3.473051e-01 9.377522e-01 0.000000e+00
    outer loop
      vertex   -3.154353e-03 9.489471e-03 1.000000e-01
      vertex   -3.787789e-03 9.254872e-03 0.000000e+00
      vertex   -3.787789e-03 9.254872e-03 1.000000e-01
    endloop
  endfacet
  facet normal -4.098202e-01 9.121663e-01 0.000000e+00
    outer loop
      vertex   -3.787789e-03 9.254872e-03 1.000000e-01
      vertex   -3.787789e-03 9.254872e-03 0.000000e+00
      vertex   -4.403942e-03 8.978046e-03 0.000000e+00
    endloop
  endfacet
  facet normal -4.098202e-01 9.121663e-01 0.000000e+00
    outer loop
      vertex   -3.787789e-03 9.254872e-03 1.000000e-01
      vertex   -4.403942e-03 8.978046e-03 0.000000e+00
      vertex   -4.403942e-03 8.978046e-03 1.000000e-01
    endloop
  endfacet
  facet normal -4.704659e-01 8.824182e-01 0.000000e+00
    outer loop
      vertex   -4.403942e-03 8.978046e-03 1.000000e-01
      vertex   -4.403942e-03 8.978046e-03 0.000000e+00
      vertex   -5.000000e-03 8.660254e-03 0.000000e+00
    endloop
  endfacet
  facet normal -4.704659e-01 8.824182e-01 0.000000e+00
    outer loop
      vertex   -4.403942e-03 8.978046e-03 1.000000e-01
      vertex   -5.000000e-03 8.660254e-03 0.000000e+00
      vertex   -5.000000e-03 8.660254e-03 1.000000e-01
    endloop
  endfacet
  facet normal -5.289639e-01 8.486444e-01 0.000000e+00
    outer loop
      vertex   -5.000000e-03 8.660254e-03 1.000000e-01
      vertex   -5.000000e-03 8.660254e-03 0.000000e+00
      vertex   -5.573245e-03 8.302948e-03 0.000000e+00
    endloop
  endfacet
  facet normal -5.289639e-01 8.486444e-01 0.000000e+00
    outer loop
      vertex   -5.000000e-03 8.660254e-03 1.000000e-01
      vertex   -5.573245e-03 8.302948e-03 0.000000e+00
      vertex   -5.573245e-03 8.302948e-03 1.000000e-01
    endloop
  endfacet
  facet normal -5.850493e-01 8.109977e-01 0.000000e+00
    outer loop
      vertex   -5.573245e-03 8.302948e-03 1.000000e-01
      vertex   -5.573245e-03 8.302948e-03 0.000000e+00
      vertex   -6.121060e-03 7.907757e-03 0.000000e+00
    endloop
  endfacet
  facet normal -5.850493e-01 8.109977e-01 0.000000e+00
    outer loop
      vertex   -5.573245e-03 8.302948e-03 1.000000e-01
      vertex   -6.121060e-03 7.907757e-03 0.000000e+00
      vertex   -6.121060e-03 7.907757e-03 1.000000e-01
    endloop
  endfacet
  facet normal -6.384642e-01 7.696515e-01 0.000000e+00
    outer loop
      vertex   -6.121060e-03 7.907757e-03 1.000000e-01
      vertex   -6.121060e-03 7.907757e-03 0.000000e+00
      vertex   -6.640946e-03 7.476485e-03 0.000000e+00
    endloop
  endfacet
  facet normal -6.384642e-01 7.696515e-01 0.000000e+00
    outer loop
      vertex   -6.121060e-03 7.907757e-03 1.000000e-01
      vertex   -6.640946e-03 7.476485e-03 0.000000e+00
      vertex   -6.640946e-03 7.476485e-03 1.000000e-01
    endloop
  endfacet
  facet normal -6.889671e-01 7.247926e-01 0.000000e+00
    outer loop
      vertex   -6.640946e-03 7.476485e-03 1.000000e-01
      vertex   -6.640946e-03 7.476485e-03 0.000000e+00
      vertex   -7.130531e-03 7.011100e-03 0.000000e+00
    endloop
  endfacet
  facet normal -6.889671e-01 7.247926e-01 0.000000e+00
    outer loop
      vertex   -6.640946e-03 7.476485e-03 1.000000e-01
      vertex   -7.130531e-03 7.011100e-03 0.000000e+00
      vertex   -7.130531e-03 7.011100e-03 1.000000e-01
    endloop
  endfacet
  facet normal -7.363255e-01 6.766275e-01 0.000000e+00
    outer loop
      vertex   -7.130531e-03 7.011100e-03 1.000000e-01
      vertex   -7.130531e-03 7.011100e-03 0.000000e+00
      vertex   -7.587581e-03 6.513725e-03 0.000000e+00
    endloop
  endfacet
  facet normal -7.363255e-01 6.766275e-01 0.000000e+00
    outer loop
      vertex   -7.130531e-03 7.011100e-03 1.000000e-01
      vertex   -7.587581e-03 6.513725e-03 0.000000e+00
      vertex   -7.587581e-03 6.513725e-03 1.000000e-01
    endloop
  endfacet
  facet normal -7.803252e-01 6.253739e-01 0.000000e+00
    outer loop
      vertex   -7.587581e-03 6.513725e-03 1.000000e-01
      vertex   -7.587581e-03 6.513725e-03 0.000000e+00
      vertex   -8.010011e-03 5.986629e-03 0.000000e+00
    endloop
  endfacet
  facet normal -7.803252e-01 6.253739e-01 0.000000e+00
    outer loop
      vertex   -7.587581e-03 6.513725e-03 1.000000e-01
      vertex   -8.010011e-03 5.986629e-03 0.000000e+00
      vertex   -8.010011e-03 5.986629e-03 1.000000e-01
    endloop
  endfacet
  facet normal -8.207631e-01 5.712687e-01 0.000000e+00
    outer loop
      vertex   -8.010011e-03 5.986629e-03 1.000000e-01
      vertex   -8.010011e-03 5.986629e-03 0.000000e+00
      vertex   -8.395893e-03 5.432217e-03 0.000000e+00
    endloop
  endfacet
  facet normal -8.207631e-01 5.712687e-01 0.000000e+00
    outer loop
      vertex   -8.010011e-03 5.986629e-03 1.000000e-01
      vertex   -8.395893e-03 5.432217e-03 0.000000e+00
      vertex   -8.395893e-03 5.432217e-03 1.000000e-01
    endloop
  endfacet
  facet normal -8.574572e-01 5.145553e-01 0.000000e+00
    outer loop
      vertex   -8.395893e-03 5.432217e-03 1.000000e-01
      vertex   -8.395893e-03 5.432217e-03 0.000000e+00
      vertex   -8.743466e-03 4.853020e-03 0.000000e+00
    endloop
  endfacet
  facet normal -8.574572e-01 5.145553e-01 0.000000e+00
    outer loop
      vertex   -8.395893e-03 5.432217e-03 1.000000e-01
      vertex   -8.743466e-03 4.853020e-03 0.000000e+00
      vertex   -8.743466e-03 4.853020e-03 1.000000e-01
    endloop
  endfacet
  facet normal -8.902383e-01 4.554951e-01 0.000000e+00
    outer loop
      vertex   -8.743466e-03 4.853020e-03 1.000000e-01
      vertex   -8.743466e-03 4.853020e-03 0.000000e+00
      vertex   -9.051145e-03 4.251679e-03 0.000000e+00
    endloop
  endfacet
  facet normal -8.902383e-01 4.554951e-01 0.000000e+00
    outer loop
      vertex   -8.743466e-03 4.853020e-03 1.000000e-01
      vertex   -9.051145e-03 4.251679e-03 0.000000e+00
      vertex   -9.051145e-03 4.251679e-03 1.000000e-01
    endloop
  endfacet
  facet normal -9.189580e-01 3.943554e-01 0.000000e+00
    outer loop
      vertex   -9.051145e-03 4.251679e-03 1.000000e-01
      vertex   -9.051145e-03 4.251679e-03 0.000000e+00
      vertex   -9.317526e-03 3.630939e-03 0.000000e+00
    endloop
  endfacet
  facet normal -9.189580e-01 3.943554e-01 0.000000e+00
    outer loop
      vertex   -9.051145e-03 4.251679e-03 1.000000e-01
      vertex   -9.317526e-03 3.630939e-03 0.000000e+00
      vertex   -9.317526e-03 3.630939e-03 1.000000e-01
    endloop
  endfacet
  facet normal -9.434842e-01 3.314174e-01 0.000000e+00
    outer loop
      vertex   -9.317526e-03 3.630939e-03 1.000000e-01
      vertex   -9.317526e-03 3.630939e-03 0.000000e+00
      vertex   -9.541392e-03 2.993631e-03 0.000000e+00
    endloop
  endfacet
  facet normal -9.434842e-01 3.314174e-01 0.000000e+00
    outer loop
      vertex   -9.317526e-03 3.630939e-03 1.000000e-01
      vertex   -9.541392e-03 2.993631e-03 0.000000e+00
      vertex   -9.541392e-03 2.993631e-03 1.000000e-01
    endloop
  endfacet
  facet normal -9.637055e-01 2.669676e-01 0.000000e+00
    outer loop
      vertex   -9.541392e-03 2.993631e-03 1.000000e-01
      vertex   -9.541392e-03 2.993631e-03 0.000000e+00
      vertex   -9.721724e-03 2.342665e-03 0.000000e+00
    endloop
  endfacet
  facet normal -9.637055e-01 2.669676e-01 0.000000e+00
    outer loop
      vertex   -9.541392e-03 2.993631e-03 1.000000e-01
      vertex   -9.721724e-03 2.342665e-03 0.000000e+00
      vertex   -9.721724e-03 2.342665e-03 1.000000e-01
    endloop
  endfacet
  facet normal -9.795299e-01 2.012985e-01 0.000000e+00
    outer loop
      vertex   -9.721724e-03 2.342665e-03 1.000000e-01
      vertex   -9.721724e-03 2.342665e-03 0.000000e+00
      vertex   -9.857698e-03 1.681009e-03 0.000000e+00
    endloop
  endfacet
  facet normal -9.795299e-01 2.012985e-01 0.000000e+00
    outer loop
      vertex   -9.721724e-03 2.342665e-03 1.000000e-01
      vertex   -9.857698e-03 1.681009e-03 0.000000e+00
      vertex   -9.857698e-03 1.681009e-03 1.000000e-01
    endloop
  endfacet
  facet normal -9.908848e-01 1.347117e-01 0.000000e+00
    outer loop
      vertex   -9.857698e-03 1.681009e-03 1.000000e-01
      vertex   -9.857698e-03 1.681009e-03 0.000000e+00
      vertex   -9.948694e-03 1.011683e-03 0.000000e+00
    endloop
  endfacet
  facet normal -9.908848e-01 1.347117e-01 0.000000e+00
    outer loop
      vertex   -9.857698e-03 1.681009e-03 1.000000e-01
      vertex   -9.948694e-03 1.011683e-03 0.000000e+00
      vertex   -9.948694e-03 1.011683e-03 1.000000e-01
    endloop
  endfacet
  facet normal -9.977187e-01 6.750894e-02 0.000000e+00
    outer loop
      vertex   -9.948694e-03 1.011683e-03 1.000000e-01
      vertex   -9.948694e-03 1.011683e-03 0.000000e+00
      vertex   -9.994295e-03 3.377414e-04 0.000000e+00
    endloop
  endfacet
  facet normal -9.977187e-01 6.750894e-02 0.000000e+00
    outer loop
      vertex   -9.948694e-03 1.011683e-03 1.000000e-01
      vertex   -9.994295e-03 3.377414e-04 0.000000e+00
      vertex   -9.994295e-03 3.377414e-04 1.000000e-01
    endloop
  endfacet
  facet normal -1.000000e+00 0.000000e+00 -0.000000e+00
    outer loop
      vertex   -9.994295e-03 3.377414e-04 1.000000e-01
      vertex   -9.994295e-03 3.377414e-04 0.000000e+00
      vertex   -9.994295e-03 -3.377414e-04 0.000000e+00
    endloop
  endfacet
  facet normal -1.000000e+00 -0.000000e+00 0.000000e+00
    outer loop
      vertex   -9.994295e-03 3.377414e-04 1.000000e-01
      vertex   -9.994295e-03 -3.377414e-04 0.000000e+00
      vertex   -9.994295e-03 -3.377414e-04 1.000000e-01
    endloop
  endfacet
  facet normal -9.977187e-01 -6.750894e-02 -0.000000e+00
    outer loop
      vertex   -9.994295e-03 -3.377414e-04 1.000000e-01
      vertex   -9.994295e-03 -3.377414e-04 0.000000e+00
      vertex   -9.948694e-03 -1.011683e-03 0.000000e+00
    endloop
  endfacet
  facet normal -9.977187e-01 -6.750894e-02 0.000000e+00
    outer loop
      vertex   -9.994295e-03 -3.377414e-04 1.000000e-01
      vertex   -9.948694e-03 -1.011683e-03 0.000000e+00
      vertex   -9.948694e-03 -1.011683e-03 1.000000e-01
    endloop
  endfacet
  facet normal -9.908848e-01 -1.347117e-01 -0.000000e+00
    outer loop
      vertex   -9.948694e-03 -1.011683e-03 1.000000e-01
      vertex   -9.948694e-03 -1.011683e-03 0.000000e+00
      vertex   -9.857698e-03 -1.681009e-03 0.000000e+00
    endloop
  endfacet
  facet normal -9.908848e-01 -1.347117e-01 0.000000e+00
    outer loop
      vertex   -9.948694e-03 -1.011683e-03 1.000000e-01
      vertex   -9.857698e-03 -1.681009e-03 0.000000e+00
      vertex   -9.857698e-03 -1.681009e-03 1.000000e-01
    endloop
  endfacet
  facet normal -9.795299e-01 -2.012985e-01 -0.000000e+00
    outer loop
      vertex   -9.857698e-03 -1.681009e-03 1.000000e-01
      vertex   -9.857698e-03 -1.681009e-03 0.000000e+00
      vertex   -9.721724e-03 -2.342665e-03 0.000000e+00
    endloop
  endfacet
  facet normal -9.795299e-01 -2.012985e-01 0.000000e+00
    outer loop
      vertex   -9.857698e-03 -1.681009e-03 1.000000e-01
      vertex   -9.721724e-03 -2.342665e-03 0.000000e+00
      vertex   -9.721724e-03 -2.342665e-03 1.000000e-01
    endloop
  endfacet
  facet normal -9.637055e-01 -2.669676e-01 -0.000000e+00
    outer loop
      vertex   -9.721724e-03 -2.342665e-03 1.000000e-01
      vertex   -9.721724e-03 -2.342665e-03 0.000000e+00
      vertex   -9.541392e-03 -2.993631e-03 0.000000e+00
    endloop
  endfacet
  facet normal -9.637055e-01 -2.669676e-01 0.000000e+00
    outer loop
      vertex   -9.721724e-03 -2.342665e-03 1.000000e-01
      vertex   -9.541392e-03 -2.993631e-03 0.000000e+00
      vertex   -9.541392e-03 -2.993631e-03 1.000000e-01
    endloop
  endfacet
  facet normal -9.434842e-01 -3.314174e-01 -0.000000e+00
    outer loop
      vertex   -9.541392e-03 -2.993631e-03 1.000000e-01
      vertex   -9.541392e-03 -2.993631e-03 0.000000e+00
      vertex   -9.317526e-03 -3.630939e-03 0.000000e+00
    endloop
  endfacet
  facet normal -9.434842e-01 -3.314174e-01 0.000000e+00
    outer loop
      vertex   -9.541392e-03 -2.993631e-03 1.000000e-01
      vertex   -9.317526e-03 -3.630939e-03 0.000000e+00
      vertex   -9.317526e-03 -3.630939e-03 1.000000e-01
    endloop
  endfacet
  facet normal -9.189580e-01 -3.943554e-01 -0.000000e+00
    outer loop
      vertex   -9.317526e-03 -3.630939e-03 1.000000e-01
      vertex   -9.317526e-03 -3.630939e-03 0.000000e+00
      vertex   -9.051145e-03 -4.251679e-03 0.000000e+00
    endloop
  endfacet
  facet normal -9.189580e-01 -3.943554e-01 0.000000e+00
    outer loop
      vertex   -9.317526e-03 -3.630939e-03 1.000000e-01
      vertex   -9.051145e-03 -4.251679e-03 0.000000e+00
      vertex   -9.051145e-03 -4.251679e-03 1.000000e-01
    endloop
  endfacet
  facet normal -8.902383e-01 -4.554951e-01 -0.000000e+00
    outer loop
      vertex   -9.051145e-03 -4.251679e-03 1.000000e-01
      vertex   -9.051145e-03 -4.251679e-03 0.000000e+00
      vertex   -8.743466e-03 -4.853020e-03 0.000000e+00
    endloop
  endfacet
  facet normal -8.902383e-01 -4.554951e-01 0.000000e+00
    outer loop
      vertex   -9.051145e-03 -4.251679e-03 1.000000e-01
      vertex   -8.743466e-03 -4.853020e-03 0.000000e+00
      vertex   -8.743466e-03 -4.853020e-03 1.000000e-01
    endloop
  endfacet
  facet normal -8.574572e-01 -5.145553e-01 -0.000000e+00
    outer loop
      vertex   -8.743466e-03 -4.853020e-03 1.000000e-01
      vertex   -8.743466e-03 -4.853020e-03 0.000000e+00
      vertex   -8.395893e-03 -5.432217e-03 0.000000e+00
    endloop
  endfacet
  facet normal -8.574572e-01 -5.145553e-01 0.000000e+00
    outer loop
      vertex   -8.743466e-03 -4.853020e-03 1.000000e-01
      vertex   -8.395893e-03 -5.432217e-03 0.000000e+00
      vertex   -8.395893e-03 -5.432217e-03 1.000000e-01
    endloop
  endfacet
  facet normal -8.207631e-01 -5.712687e-01 -0.000000e+00
    outer loop
      vertex   -8.395893e-03 -5.432217e-03 1.000000e-01
      vertex   -8.395893e-03 -5.432217e-03 0.000000e+00
      vertex   -8.010011e-03 -5.986629e-03 0.000000e+00
    endloop
  endfacet
  facet normal -8.207631e-01 -5.712687e-01 0.000000e+00
    outer loop
      vertex   -8.395893e-03 -5.432217e-03 1.000000e-01
      vertex   -8.010011e-03 -5.986629e-03 0.000000e+00
      vertex   -8.010011e-03 -5.986629e-03 1.000000e-01
    endloop
  endfacet
  facet normal -7.803252e-01 -6.253739e-01 -0.000000e+00
    outer loop
      vertex   -8.010011e-03 -5.986629e-03 1.000000e-01
      vertex   -8.010011e-03 -5.986629e-03 0.000000e+00
      vertex   -7.587581e-03 -6.513725e-03 0.000000e+00
    endloop
  endfacet
  facet normal -7.803252e-01 -6.253739e-01 0.000000e+00
    outer loop
      vertex   -8.010011e-03 -5.986629e-03 1.000000e-01
      vertex   -7.587581e-03 -6.513725e-03 0.000000e+00
      vertex   -7.587581e-03 -6.513725e-03 1.000000e-01
    endloop
  endfacet
  facet normal -7.363255e-01 -6.766275e-01 -0.000000e+00
    outer loop
      vertex   -7.587581e-03 -6.513725e-03 1.000000e-01
      vertex   -7.587581e-03 -6.513725e-03 0.000000e+00
      vertex   -7.130531e-03 -7.011100e-03 0.000000e+00
    endloop
  endfacet
  facet normal -7.363255e-01 -6.766275e-01 0.000000e+00
    outer loop
      vertex   -7.587581e-03 -6.513725e-03 1.000000e-01
      vertex   -7.130531e-03 -7.011100e-03 0.000000e+00
      vertex   -7.130531e-03 -7.011100e-03 1.000000e-01
    endloop
  endfacet
  facet normal -6.889671e-01 -7.247926e-01 -0.000000e+00
    outer loop
      vertex   -7.130531e-03 -7.011100e-03 1.000000e-01
      vertex   -7.130531e-03 -7.011100e-03 0.000000e+00
      vertex   -6.640946e-03 -7.476485e-03 0.000000e+00
    endloop
  endfacet
  facet normal -6.889671e-01 -7.247926e-01 0.000000e+00
    outer loop
      vertex   -7.130531e-03 -7.011100e-03 1.000000e-01
      vertex   -6.640946e-03 -7.476485e-03 0.000000e+00
      vertex   -6.640946e-03 -7.476485e-03 1.000000e-01
    endloop
  endfacet
  facet normal -6.384642e-01 -7.696515e-01 -0.000000e+00
    outer loop
      vertex   -6.640946e-03 -7.476485e-03 1.000000e-01
      vertex   -6.640946e-03 -7.476485e-03 0.000000e+00
      vertex   -6.121060e-03 -7.907757e-03 0.000000e+00
    endloop
  endfacet
  facet normal -6.384642e-01 -7.696515e-01 0.000000e+00
    outer loop
      vertex   -6.640946e-03 -7.476485e-03 1.000000e-01
      vertex   -6.121060e-03 -7.907757e-03 0.000000e+00
      vertex   -6.121060e-03 -7.907757e-03 1.000000e-01
    endloop
  endfacet
  facet normal -5.850493e-01 -8.109977e-01 -0.000000e+00
    outer loop
      vertex   -6.121060e-03 -7.907757e-03 1.000000e-01
      vertex   -6.121060e-03 -7.907757e-03 0.000000e+00
      vertex   -5.573245e-03 -8.302948e-03 0.000000e+00
    endloop
  endfacet
  facet normal -5.850493e-01 -8.109977e-01 0.000000e+00
    outer loop
      vertex   -6.121060e-03 -7.907757e-03 1.000000e-01
      vertex   -5.573245e-03 -8.302948e-03 0.000000e+00
      vertex   -5.573245e-03 -8.302948e-03 1.000000e-01
    endloop
  endfacet
  facet normal -5.289639e-01 -8.486444e-01 -0.000000e+00
    outer loop
      vertex   -5.573245e-03 -8.302948e-03 1.000000e-01
      vertex   -5.573245e-03 -8.302948e-03 0.000000e+00
      vertex   -5.000000e-03 -8.660254e-03 0.000000e+00
    endloop
  endfacet
  facet normal -5.289639e-01 -8.486444e-01 0.000000e+00
    outer loop
      vertex   -5.573245e-03 -8.302948e-03 1.000000e-01
      vertex   -5.000000e-03 -8.660254e-03 0.000000e+00
      vertex   -5.000000e-03 -8.660254e-03 1.000000e-01
    endloop
  endfacet
  facet normal -4.704659e-01 -8.824182e-01 -0.000000e+00
    outer loop
      vertex   -5.000000e-03 -8.660254e-03 1.000000e-01
      vertex   -5.000000e-03 -8.660254e-03 0.000000e+00
      vertex   -4.403942e-03 -8.978046e-03 0.000000e+00
    endloop
  endfacet
  facet normal -4.704659e-01 -8.824182e-01 0.000000e+00
    outer loop
      vertex   -5.000000e-03 -8.660254e-03 1.000000e-01
      vertex   -4.403942e-03 -8.978046e-03 0.000000e+00
      vertex   -4.403942e-03 -8.978046e-03 1.000000e-01
    endloop
  endfacet
  facet normal -4.098202e-01 -9.121663e-01 -0.000000e+00
    outer loop
      vertex   -4.403942e-03 -8.978046e-03 1.000000e-01
      vertex   -4.403942e-03 -8.978046e-03 0.000000e+00
      vertex   -3.787789e-03 -9.254872e-03 0.000000e+00
    endloop
  endfacet
  facet normal -4.098202e-01 -9.121663e-01 0.000000e+00
    outer loop
      vertex   -4.403942e-03 -8.978046e-03 1.000000e-01
      vertex   -3.787789e-03 -9.254872e-03 0.000000e+00
      vertex   -3.787789e-03 -9.254872e-03 1.000000e-01
    endloop
  endfacet
  facet normal -3.473051e-01 -9.377522e-01 -0.000000e+00
    outer loop
      vertex   -3.787789e-03 -9.254872e-03 1.000000e-01
      vertex   -3.787789e-03 -9.254872e-03 0.000000e+00
      vertex   -3.154353e-03 -9.489471e-03 0.000000e+00
    endloop
  endfacet
  facet normal -3.473051e-01 -9.377522e-01 0.000000e+00
    outer loop
      vertex   -3.787789e-03 -9.254872e-03 1.000000e-01
      vertex   -3.154353e-03 -9.489471e-03 0.000000e+00
      vertex   -3.154353e-03 -9.489471e-03 1.000000e-01
    endloop
  endfacet
  facet normal -2.832055e-01 -9.590593e-01 -0.000000e+00
    outer loop
      vertex   -3.154353e-03 -9.489471e-03 1.000000e-01
      vertex   -3.154353e-03 -9.489471e-03 0.000000e+00
      vertex   -2.506525e-03 -9.680771e-03 0.000000e+00
    endloop
  endfacet
  facet normal -2.832055e-01 -9.590593e-01 0.000000e+00
    outer loop
      vertex   -3.154353e-03 -9.489471e-03 1.000000e-01
      vertex   -2.506525e-03 -9.680771e-03 0.000000e+00
      vertex   -2.506525e-03 -9.680771e-03 1.000000e-01
    endloop
  endfacet
  facet normal -2.178136e-01 -9.759904e-01 -0.000000e+00
    outer loop
      vertex   -2.506525e-03 -9.680771e-03 1.000000e-01
      vertex   -2.506525e-03 -9.680771e-03 0.000000e+00
      vertex   -1.847261e-03 -9.827901e-03 0.000000e+00
    endloop
  endfacet
  facet normal -2.178136e-01 -9.759904e-01 0.000000e+00
    outer loop
      vertex   -2.506525e-03 -9.680771e-03 1.000000e-01
      vertex   -1.847261e-03 -9.827901e-03 0.000000e+00
      vertex   -1.847261e-03 -9.827901e-03 1.000000e-01
    endloop
  endfacet
  facet normal -1.514279e-01 -9.884683e-01 -0.000000e+00
    outer loop
      vertex   -1.847261e-03 -9.827901e-03 1.000000e-01
      vertex   -1.847261e-03 -9.827901e-03 0.000000e+00
      vertex   -1.179567e-03 -9.930187e-03 0.000000e+00
    endloop
  endfacet
  facet normal -1.514279e-01 -9.884683e-01 0.000000e+00
    outer loop
      vertex   -1.847261e-03 -9.827901e-03 1.000000e-01
      vertex   -1.179567e-03 -9.930187e-03 0.000000e+00
      vertex   -1.179567e-03 -9.930187e-03 1.000000e-01
    endloop
  endfacet
  facet normal -8.435131e-02 -9.964361e-01 -0.000000e+00
    outer loop
      vertex   -1.179567e-03 -9.930187e-03 1.000000e-01
      vertex   -1.179567e-03 -9.930187e-03 0.000000e+00
      vertex   -5.064917e-04 -9.987165e-03 0.000000e+00
    endloop
  endfacet
  facet normal -8.435131e-02 -9.964361e-01 0.000000e+00
    outer loop
      vertex   -1.179567e-03 -9.930187e-03 1.000000e-01
      vertex   -5.064917e-04 -9.987165e-03 0.000000e+00
      vertex   -5.064917e-04 -9.987165e-03 1.000000e-01
    endloop
  endfacet
  facet normal -1.688915e-02 -9.998574e-01 -0.000000e+00
    outer loop
      vertex   -5.064917e-04 -9.987165e-03 1.000000e-01
      vertex   -5.064917e-04 -9.987165e-03 0.000000e+00
      vertex   1.688948e-04 -9.998574e-03 0.000000e+00
    endloop
  endfacet
  facet normal -1.688915e-02 -9.998574e-01 0.000000e+00
    outer loop
      vertex   -5.064917e-04 -9.987165e-03 1.000000e-01
      vertex   1.688948e-04 -9.998574e-03 0.000000e+00
      vertex   1.688948e-04 -9.998574e-03 1.000000e-01
    endloop
  endfacet
  facet normal 5.064891e-02 -9.987165e-01 0.000000e+00
    outer loop
      vertex   1.688948e-04 -9.998574e-03 1.000000e-01
      vertex   1.688948e-04 -9.998574e-03 0.000000e+00
      vertex   8.435106e-04 -9.964361e-03 0.000000e+00
    endloop
  endfacet
  facet normal 5.064891e-02 -9.987165e-01 0.000000e+00
    outer loop
      vertex   1.688948e-04 -9.998574e-03 1.000000e-01
      vertex   8.435106e-04 -9.964361e-03 0.000000e+00
      vertex   8.435106e-04 -9.964361e-03 1.000000e-01
    endloop
  endfacet
  facet normal 1.179567e-01 -9.930187e-01 0.000000e+00
    outer loop
      vertex   8.435106e-04 -9.964361e-03 1.000000e-01
      vertex   8.435106e-04 -9.964361e-03 0.000000e+00
      vertex   1.514278e-03 -9.884683e-03 0.000000e+00
    endloop
  endfacet
  facet normal 1.179567e-01 -9.930187e-01 0.000000e+00
    outer loop
      vertex   8.435106e-04 -9.964361e-03 1.000000e-01
      vertex   1.514278e-03 -9.884683e-03 0.000000e+00
      vertex   1.514278e-03 -9.884683e-03 1.000000e-01
    endloop
  endfacet
  facet normal 1.847262e-01 -9.827900e-01 0.000000e+00
    outer loop
      vertex   1.514278e-03 -9.884683e-03 1.000000e-01
      vertex   1.514278e-03 -9.884683e-03 0.000000e+00
      vertex   2.178136e-03 -9.759904e-03 0.000000e+00
    endloop
  endfacet
  facet normal 1.847262e-01 -9.827900e-01 0.000000e+00
    outer loop
      vertex   1.514278e-03 -9.884683e-03 1.000000e-01
      vertex   2.178136e-03 -9.759904e-03 0.000000e+00
      vertex   2.178136e-03 -9.759904e-03 1.000000e-01
    endloop
  endfacet
  facet normal 2.506529e-01 -9.680770e-01 0.000000e+00
    outer loop
      vertex   2.178136e-03 -9.759904e-03 1.000000e-01
      vertex   2.178136e-03 -9.759904e-03 0.000000e+00
      vertex   2.832055e-03 -9.590592e-03 0.000000e+00
    endloop
  endfacet
  facet normal 2.506529e-01 -9.680770e-01 0.000000e+00
    outer loop
      vertex   2.178136e-03 -9.759904e-03 1.000000e-01
      vertex   2.832055e-03 -9.590592e-03 0.000000e+00
      vertex   2.832055e-03 -9.590592e-03 1.000000e-01
    endloop
  endfacet
  facet normal 3.154353e-01 -9.489471e-01 0.000000e+00
    outer loop
      vertex   2.832055e-03 -9.590592e-03 1.000000e-01
      vertex   2.832055e-03 -9.590592e-03 0.000000e+00
      vertex   3.473052e-03 -9.377521e-03 0.000000e+00
    endloop
  endfacet
  facet normal 3.154353e-01 -9.489471e-01 0.000000e+00
    outer loop
      vertex   2.832055e-03 -9.590592e-03 1.000000e-01
      vertex   3.473052e-03 -9.377521e-03 0.000000e+00
      vertex   3.473052e-03 -9.377521e-03 1.000000e-01
    endloop
  endfacet
  facet normal 3.787784e-01 -9.254874e-01 0.000000e+00
    outer loop
      vertex   3.473052e-03 -9.377521e-03 1.000000e-01
      vertex   3.473052e-03 -9.377521e-03 0.000000e+00
      vertex   4.098203e-03 -9.121663e-03 0.000000e+00
    endloop
  endfacet
  facet normal 3.787784e-01 -9.254874e-01 0.000000e+00
    outer loop
      vertex   3.473052e-03 -9.377521e-03 1.000000e-01
      vertex   4.098203e-03 -9.121663e-03 0.000000e+00
      vertex   4.098203e-03 -9.121663e-03 1.000000e-01
    endloop
  endfacet
  facet normal 4.403945e-01 -8.978044e-01 0.000000e+00
    outer loop
      vertex   4.098203e-03 -9.121663e-03 1.000000e-01
      vertex   4.098203e-03 -9.121663e-03 0.000000e+00
      vertex   4.704655e-03 -8.824184e-03 0.000000e+00
    endloop
  endfacet
  facet normal 4.403945e-01 -8.978044e-01 0.000000e+00
    outer loop
      vertex   4.098203e-03 -9.121663e-03 1.000000e-01
      vertex   4.704655e-03 -8.824184e-03 0.000000e+00
      vertex   4.704655e-03 -8.824184e-03 1.000000e-01
    endloop
  endfacet
  facet normal 5.000001e-01 -8.660253e-01 0.000000e+00
    outer loop
      vertex   4.704655e-03 -8.824184e-03 1.000000e-01
      vertex   4.704655e-03 -8.824184e-03 0.000000e+00
      vertex   5.289640e-03 -8.486443e-03 0.000000e+00
    endloop
  endfacet
  facet normal 5.000001e-01 -8.660253e-01 0.000000e+00
    outer loop
      vertex   4.704655e-03 -8.824184e-03 1.000000e-01
      vertex   5.289640e-03 -8.486443e-03 0.000000e+00
      vertex   5.289640e-03 -8.486443e-03 1.000000e-01
    endloop
  endfacet
  facet normal 5.573243e-01 -8.302949e-01 0.000000e+00
    outer loop
      vertex   5.289640e-03 -8.486443e-03 1.000000e-01
      vertex   5.289640e-03 -8.486443e-03 0.000000e+00
      vertex   5.850490e-03 -8.109980e-03 0.000000e+00
    endloop
  endfacet
  facet normal 5.573243e-01 -8.302949e-01 0.000000e+00
    outer loop
      vertex   5.289640e-03 -8.486443e-03 1.000000e-01
      vertex   5.850490e-03 -8.109980e-03 0.000000e+00
      vertex   5.850490e-03 -8.109980e-03 1.000000e-01
    endloop
  endfacet
  facet normal 6.121058e-01 -7.907759e-01 0.000000e+00
    outer loop
      vertex   5.850490e-03 -8.109980e-03 1.000000e-01
      vertex   5.850490e-03 -8.109980e-03 0.000000e+00
      vertex   6.384646e-03 -7.696512e-03 0.000000e+00
    endloop
  endfacet
  facet normal 6.121058e-01 -7.907759e-01 0.000000e+00
    outer loop
      vertex   5.850490e-03 -8.109980e-03 1.000000e-01
      vertex   6.384646e-03 -7.696512e-03 0.000000e+00
      vertex   6.384646e-03 -7.696512e-03 1.000000e-01
    endloop
  endfacet
  facet normal 6.640948e-01 -7.476484e-01 0.000000e+00
    outer loop
      vertex   6.384646e-03 -7.696512e-03 1.000000e-01
      vertex   6.384646e-03 -7.696512e-03 0.000000e+00
      vertex   6.889669e-03 -7.247928e-03 0.000000e+00
    endloop
  endfacet
  facet normal 6.640948e-01 -7.476484e-01 0.000000e+00
    outer loop
      vertex   6.384646e-03 -7.696512e-03 1.000000e-01
      vertex   6.889669e-03 -7.247928e-03 0.000000e+00
      vertex   6.889669e-03 -7.247928e-03 1.000000e-01
    endloop
  endfacet
  facet normal 7.130532e-01 -7.011099e-01 0.000000e+00
    outer loop
      vertex   6.889669e-03 -7.247928e-03 1.000000e-01
      vertex   6.889669e-03 -7.247928e-03 0.000000e+00
      vertex   7.363257e-03 -6.766273e-03 0.000000e+00
    endloop
  endfacet
  facet normal 7.130532e-01 -7.011099e-01 0.000000e+00
    outer loop
      vertex   6.889669e-03 -7.247928e-03 1.000000e-01
      vertex   7.363257e-03 -6.766273e-03 0.000000e+00
      vertex   7.363257e-03 -6.766273e-03 1.000000e-01
    endloop
  endfacet
  facet normal 7.587580e-01 -6.513726e-01 0.000000e+00
    outer loop
      vertex   7.363257e-03 -6.766273e-03 1.000000e-01
      vertex   7.363257e-03 -6.766273e-03 0.000000e+00
      vertex   7.803248e-03 -6.253744e-03 0.000000e+00
    endloop
  endfacet
  facet normal 7.587580e-01 -6.513726e-01 0.000000e+00
    outer loop
      vertex   7.363257e-03 -6.766273e-03 1.000000e-01
      vertex   7.803248e-03 -6.253744e-03 0.000000e+00
      vertex   7.803248e-03 -6.253744e-03 1.000000e-01
    endloop
  endfacet
  facet normal 8.010010e-01 -5.986630e-01 0.000000e+00
    outer loop
      vertex   7.803248e-03 -6.253744e-03 1.000000e-01
      vertex   7.803248e-03 -6.253744e-03 0.000000e+00
      vertex   8.207635e-03 -5.712682e-03 0.000000e+00
    endloop
  endfacet
  facet normal 8.010010e-01 -5.986630e-01 0.000000e+00
    outer loop
      vertex   7.803248e-03 -6.253744e-03 1.000000e-01
      vertex   8.207635e-03 -5.712682e-03 0.000000e+00
      vertex   8.207635e-03 -5.712682e-03 1.000000e-01
    endloop
  endfacet
  facet normal 8.395893e-01 -5.432218e-01 0.000000e+00
    outer loop
      vertex   8.207635e-03 -5.712682e-03 1.000000e-01
      vertex   8.207635e-03 -5.712682e-03 0.000000e+00
      vertex   8.574572e-03 -5.145554e-03 0.000000e+00
    endloop
  endfacet
  facet normal 8.395893e-01 -5.432218e-01 0.000000e+00
    outer loop
      vertex   8.207635e-03 -5.712682e-03 1.000000e-01
      vertex   8.574572e-03 -5.145554e-03 0.000000e+00
      vertex   8.574572e-03 -5.145554e-03 1.000000e-01
    endloop
  endfacet
  facet normal 8.743467e-01 -4.853019e-01 0.000000e+00
    outer loop
      vertex   8.574572e-03 -5.145554e-03 1.000000e-01
      vertex   8.574572e-03 -5.145554e-03 0.000000e+00
      vertex   8.902385e-03 -4.554948e-03 0.000000e+00
    endloop
  endfacet
  facet normal 8.743467e-01 -4.853019e-01 0.000000e+00
    outer loop
      vertex   8.574572e-03 -5.145554e-03 1.000000e-01
      vertex   8.902385e-03 -4.554948e-03 0.000000e+00
      vertex   8.902385e-03 -4.554948e-03 1.000000e-01
    endloop
  endfacet
  facet normal 9.051145e-01 -4.251680e-01 0.000000e+00
    outer loop
      vertex   8.902385e-03 -4.554948e-03 1.000000e-01
      vertex   8.902385e-03 -4.554948e-03 0.000000e+00
      vertex   9.189578e-03 -3.943559e-03 0.000000e+00
    endloop
  endfacet
  facet normal 9.051145e-01 -4.251680e-01 0.000000e+00
    outer loop
      vertex   8.902385e-03 -4.554948e-03 1.000000e-01
      vertex   9.189578e-03 -3.943559e-03 0.000000e+00
      vertex   9.189578e-03 -3.943559e-03 1.000000e-01
    endloop
  endfacet
  facet normal 9.317526e-01 -3.630937e-01 0.000000e+00
    outer loop
      vertex   9.189578e-03 -3.943559e-03 1.000000e-01
      vertex   9.189578e-03 -3.943559e-03 0.000000e+00
      vertex   9.434842e-03 -3.314176e-03 0.000000e+00
    endloop
  endfacet
  facet normal 9.317526e-01 -3.630937e-01 0.000000e+00
    outer loop
      vertex   9.189578e-03 -3.943559e-03 1.000000e-01
      vertex   9.434842e-03 -3.314176e-03 0.000000e+00
      vertex   9.434842e-03 -3.314176e-03 1.000000e-01
    endloop
  endfacet
  facet normal 9.541392e-01 -2.993632e-01 0.000000e+00
    outer loop
      vertex   9.434842e-03 -3.314176e-03 1.000000e-01
      vertex   9.434842e-03 -3.314176e-03 0.000000e+00
      vertex   9.637057e-03 -2.669671e-03 0.000000e+00
    endloop
  endfacet
  facet normal 9.541392e-01 -2.993632e-01 0.000000e+00
    outer loop
      vertex   9.434842e-03 -3.314176e-03 1.000000e-01
      vertex   9.637057e-03 -2.669671e-03 0.000000e+00
      vertex   9.637057e-03 -2.669671e-03 1.000000e-01
    endloop
  endfacet
  facet normal 9.721725e-01 -2.342660e-01 0.000000e+00
    outer loop
      vertex   9.637057e-03 -2.669671e-03 1.000000e-01
      vertex   9.637057e-03 -2.669671e-03 0.000000e+00
      vertex   9.795299e-03 -2.012985e-03 0.000000e+00
    endloop
  endfacet
  facet normal 9.721725e-01 -2.342660e-01 0.000000e+00
    outer loop
      vertex   9.637057e-03 -2.669671e-03 1.000000e-01
      vertex   9.795299e-03 -2.012985e-03 0.000000e+00
      vertex   9.795299e-03 -2.012985e-03 1.000000e-01
    endloop
  endfacet
  facet normal 9.857698e-01 -1.681008e-01 0.000000e+00
    outer loop
      vertex   9.795299e-03 -2.012985e-03 1.000000e-01
      vertex   9.795299e-03 -2.012985e-03 0.000000e+00
      vertex   9.908848e-03 -1.347115e-03 0.000000e+00
    endloop
  endfacet
  facet normal 9.857698e-01 -1.681008e-01 0.000000e+00
    outer loop
      vertex   9.795299e-03 -2.012985e-03 1.000000e-01
      vertex   9.908848e-03 -1.347115e-03 0.000000e+00
      vertex   9.908848e-03 -1.347115e-03 1.000000e-01
    endloop
  endfacet
  facet normal 9.948693e-01 -1.011690e-01 0.000000e+00
    outer loop
      vertex   9.908848e-03 -1.347115e-03 1.000000e-01
      vertex   9.908848e-03 -1.347115e-03 0.000000e+00
      vertex   9.977186e-03 -6.750975e-04 0.000000e+00
    endloop
  endfacet
  facet normal 9.948693e-01 -1.011690e-01 0.000000e+00
    outer loop
      vertex   9.908848e-03 -1.347115e-03 1.000000e-01
      vertex   9.977186e-03 -6.750975e-04 0.000000e+00
      vertex   9.977186e-03 -6.750975e-04 1.000000e-01
    endloop
  endfacet
  facet normal 9.994295e-01 -3.377388e-02 0.000000e+00
    outer loop
      vertex   9.977186e-03 -6.750975e-04 1.000000e-01
      vertex   9.977186e-03 -6.750975e-04 0.000000e+00
      vertex   1.000000e-02 0.000000e+00 0.000000e+00
    endloop
  endfacet
  facet normal 0.000000e+00 0.000000e+00 1.000000e+00
    outer loop
      vertex   9.977186e-03 6.750975e-04 1.000000e-01
      vertex   -9.994295e-03 3.377414e-04 1.000000e-01
      vertex   1.000000e-02 0.000000e+00 1.000000e-01
    endloop
  endfacet
  facet normal 0.000000e+00 0.000000e+00 1.000000e+00
    outer loop
      vertex   1.000000e-02 0.000000e+00 1.000000e-01
      vertex   -9.994295e-03 3.377414e-04 1.000000e-01
      vertex   -9.994295e-03 -3.377414e-04 1.000000e-01
    endloop
  endfacet
  facet normal 0.000000e+00 0.000000e+00 1.000000e+00
    outer loop
      vertex   1.000000e-02 0.000000e+00 1.000000e-01
      vertex   -9.994295e-03 -3.377414e-04 1.000000e-01
      vertex   9.977186e-03 -6.750975e-04 1.000000e-01
    endloop
  endfacet
  facet normal 0.000000e+00 0.000000e+00 1.000000e+00
    outer loop
      vertex   9.977186e-03 -6.750975e-04 1.000000e-01
      vertex   -9.994295e-03 -3.377414e-04 1.000000e-01
      vertex   -9.948694e-03 -1.011683e-03 1.000000e-01
    endloop
  endfacet
  facet normal 0.000000e+00 0.000000e+00 1.000000e+00
    outer loop
      vertex   9.977186e-03 -6.750975e-04 1.000000e-01
      vertex   -9.948694e-03 -1.011683e-03 1.000000e-01
      vertex   9.908848e-03 -1.347115e-03 1.000000e-01
    endloop
  endfacet
  facet normal 0.000000e+00 0.000000e+00 1.000000e+00
    outer loop
      vertex   9.908848e-03 -1.347115e-03 1.000000e-01
      vertex   -9.948694e-03 -1.011683e-03 1.000000e-01
      vertex   -9.857698e-03 -1.681009e-03 1.000000e-01
    endloop
  endfacet
  facet normal 0.000000e+00 0.000000e+00 1.000000e+00
    outer loop
      vertex   9.908848e-03 -1.347115e-03 1.000000e-01
      vertex   -9.857698e-03 -1.681009e-03 1.000000e-01
      vertex   9.795299e-03 -2.012985e-03 1.000000e-01
    endloop
  endfacet
  facet normal 0.000000e+00 0.000000e+00 1.000000e+00
    outer loop
      vertex   9.795299e-03 -2.012985e-03 1.000000e-01
      vertex   -9.857698e-03 -1.681009e-03 1.000000e-01
      vertex   -9.721724e-03 -2.342665e-03 1.000000e-01
    endloop
  endfacet
  facet normal 0.000000e+00 0.000000e+00 1.000000e+00
    outer loop
      vertex   9.795299e-03 -2.012985e-03 1.000000e-01
      vertex   -9.721724e-03 -2.342665e-03 1.000000e-01
      vertex   9.637057e-03 -2.669671e-03 1.000000e-01
    endloop
  endfacet
  facet normal 0.000000e+00 0.000000e+00 1.000000e+00
    outer loop
      vertex   9.637057e-03 -2.669671e-03 1.000000e-01
      vertex   -9.721724e-03 -2.342665e-03 1.000000e-01
      vertex   -9.541392e-03 -2.993631e-03 1.000000e-01
    endloop
  endfacet
  facet normal 0.000000e+00 0.000000e+00 1.000000e+00
    outer loop
      vertex   9.637057e-03 -2.669671e-03 1.000000e-01
      vertex   -9.541392e-03 -2.993631e-03 1.000000e-01
      vertex   9.434842e-03 -3.314176e-03 1.000000e-01
    endloop
  endfacet
  facet normal 0.000000e+00 0.000000e+00 1.000000e+00
    outer loop
      vertex   9.434842e-03 -3.314176e-03 1.000000e-01
      vertex   -9.541392e-03 -2.993631e-03 1.000000e-01
      vertex   -9.317526e-03 -3.630939e-03 1.000000e-01
    endloop
  endfacet
  facet normal 0.000000e+00 0.000000e+00 1.000000e+00
    outer loop
      vertex   9.434842e-03 -3.314176e-03 1.000000e-01
      vertex   -9.317526e-03 -3.630939e-03 1.000000e-01
      vertex   9.189578e-03 -3.943559e-03 1.000000e-01
    endloop
  endfacet
  facet normal 0.000000e+00 0.000000e+00 1.000000e+00
    outer loop
      vertex   9.189578e-03 -3.943559e-03 1.000000e-01
      vertex   -9.317526e-03 -3.630939e-03 1.000000e-01
      vertex   -9.051145e-03 -4.251679e-03 1.000000e-01
    endloop
  endfacet
  facet normal 0.000000e+00 0.000000e+00 1.000000e+00
    outer loop
      vertex   9.189578e-03 -3.943559e-03 1.000000e-01
      vertex   -9.051145e-03 -4.251679e-03 1.000000e-01
      vertex   8.902385e-03 -4.554948e-03 1.000000e-01
    endloop
  endfacet
  facet normal 0.000000e+00 0.000000e+00 1.000000e+00
    outer loop
      vertex   8.902385e-03 -4.554948e-03 1.000000e-01
      vertex   -9.051145e-03 -4.251679e-03 1.000000e-01
      vertex   -8.743466e-03 -4.853020e-03 1.000000e-01
    endloop
  endfacet
  facet normal 0.000000e+00 0.000000e+00 1.000000e+00
    outer loop
      vertex   8.902385e-03 -4.554948e-03 1.000000e-01
      vertex   -8.743466e-03 -4.853020e-03 1.000000e-01
      vertex   8.574572e-03 -5.145554e-03 1.000000e-01
    endloop
  endfacet
  facet normal 0.000000e+00 0.000000e+00 1.000000e+00
    outer loop
      vertex   8.574572e-03 -5.145554e-03 1.000000e-01
      vertex   -8.743466e-03 -4.853020e-03 1.000000e-01
      vertex   -8.395893e-03 -5.432217e-03 1.000000e-01
    endloop
  endfacet
  facet normal 0.000000e+00 0.000000e+00 1.000000e+00
    outer loop
      vertex   8.574572e-03 -5.145554e-03 1.000000e-01
      vertex   -8.395893e-03 -5.432217e-03 1.000000e-01
      vertex   8.207635e-03 -5.712682e-03 1.000000e-01
    endloop
  endfacet
  facet normal 0.000000e+00 0.000000e+00 1.000000e+00
    outer loop
      vertex   8.207635e-03 -5.712682e-03 1.000000e-01
      vertex   -8.395893e-03 -5.432217e-03 1.000000e-01
      vertex   -8.010011e-03 -5.986629e-03 1.000000e-01
    endloop
  endfacet
  facet normal 0.000000e+00 0.000000e+00 1.000000e+00
    outer loop
      vertex   8.207635e-03 -5.712682e-03 1.000000e-01
      vertex   -8.010011e-03 -5.986629e-03 1.000000e-01
      vertex   7.803248e-03 -6.253744e-03 1.000000e-01
    endloop
  endfacet
  facet normal 0.000000e+00 0.000000e+00 1.000000e+00
    outer loop
      vertex   7.803248e-03 -6.253744e-03 1.000000e-01
      vertex   -8.010011e-03 -5.986629e-03 1.000000e-01
      vertex   -7.587581e-03 -6.513725e-03 1.000000e-01
    endloop
  endfacet
  facet normal 0.000000e+00 0.000000e+00 1.000000e+00
    outer loop
      vertex   7.803248e-03 -6.253744e-03 1.000000e-01
      vertex   -7.587581e-03 -6.513725e-03 1.000000e-01
      vertex   7.363257e-03 -6.766273e-03 1.000000e-01
    endloop
  endfacet
  facet normal 0.000000e+00 0.000000e+00 1.000000e+00
    outer loop
      vertex   7.363257e-03 -6.766273e-03 1.000000e-01
      vertex   -7.587581e-03 -6.513725e-03 1.000000e-01
      vertex   -7.130531e-03 -7.011100e-03 1.000000e-01
    endloop
  endfacet
  facet normal 0.000000e+00 0.000000e+00 1.000000e+00
    outer loop
      vertex   7.363257e-03 -6.766273e-03 1.000000e-01
      vertex   -7.130531e-03 -7.011100e-03 1.000000e-01
      vertex   6.889669e-03 -7.247928e-03 1.000000e-01
    endloop
  endfacet
  facet normal 0.000000e+00 0.000000e+00 1.000000e+00
    outer loop
      vertex   6.889669e-03 -7.247928e-03 1.000000e-01
      vertex   -7.130531e-03 -7.011100e-03 1.000000e-01
      vertex   -6.640946e-03 -7.476485e-03 1.000000e-01
    endloop
  endfacet
  facet normal 0.000000e+00 0.000000e+00 1.000000e+00
    outer loop
      vertex   6.889669e-03 -7.247928e-03 1.000000e-01
      vertex   -6.640946e-03 -7.476485e-03 1.000000e-01
      vertex   6.384646e-03 -7.696512e-03 1.000000e-01
    endloop
  endfacet
  facet normal 0.000000e+00 0.000000e+00 1.000000e+00
    outer loop
      vertex   6.384646e-03 -7.696512e-03 1.000000e-01
      vertex   -6.640946e-03 -7.476485e-03 1.000000e-01
      vertex   -6.121060e-03 -7.907757e-03 1.000000e-01
    endloop
  endfacet
  facet normal 0.000000e+00 0.000000e+00 1.000000e+00
    outer loop
      vertex   6.384646e-03 -7.696512e-03 1.000000e-01
      vertex   -6.121060e-03 -7.907757e-03 1.000000e-01
      vertex   5.850490e-03 -8.109980e-03 1.000000e-01
    endloop
  endfacet
  facet normal 0.000000e+00 0.000000e+00 1.000000e+00
    outer loop
      vertex   5.850490e-03 -8.109980e-03 1.000000e-01
      vertex   -6.121060e-03 -7.907757e-03 1.000000e-01
      vertex   -5.573245e-03 -8.302948e-03 1.000000e-01
    endloop
  endfacet
  facet normal 0.000000e+00 0.000000e+00 1.000000e+00
    outer loop
      vertex   5.850490e-03 -8.109980e-03 1.000000e-01
      vertex   -5.573245e-03 -8.302948e-03 1.000000e-01
      vertex   5.289640e-03 -8.486443e-03 1.000000e-01
    endloop
  endfacet
  facet normal 0.000000e+00 0.000000e+00 1.000000e+00
    outer loop
      vertex   5.289640e-03 -8.486443e-03 1.000000e-01
      vertex   -5.573245e-03 -8.302948e-03 1.000000e-01
      vertex   -5.000000e-03 -8.660254e-03 1.000000e-01
    endloop
  endfacet
  facet normal 0.000000e+00 0.000000e+00 1.000000e+00
    outer loop
      vertex   5.289640e-03 -8.486443e-03 1.000000e-01
      vertex   -5.000000e-03 -8.660254e-03 1.000000e-01
      vertex   4.704655e-03 -8.824184e-03 1.000000e-01
    endloop
  endfacet
  facet normal 0.000000e+00 0.000000e+00 1.000000e+00
    outer loop
      vertex   4.704655e-03 -8.824184e-03 1.000000e-01
      vertex   -5.000000e-03 -8.660254e-03 1.000000e-01
      vertex   -4.403942e-03 -8.978046e-03 1.000000e-01
    endloop
  endfacet
  facet normal 0.000000e+00 0.000000e+00 1.000000e+00
    outer loop
      vertex   4.704655e-03 -8.824184e-03 1.000000e-01
      vertex   -4.403942e-03 -8.978046e-03 1.000000e-01
      vertex   4.098203e-03 -9.121663e-03 1.000000e-01
    endloop
  endfacet
  facet normal 0.000000e+00 0.000000e+00 1.000000e+00
    outer loop
      vertex   4.098203e-03 -9.121663e-03 1.000000e-01
      vertex   -4.403942e-03 -8.978046e-03 1.000000e-01
      vertex   -3.787789e-03 -9.254872e-03 1.000000e-01
    endloop
  endfacet
  facet normal 0.000000e+00 0.000000e+00 1.000000e+00
    outer loop
      vertex   4.098203e-03 -9.121663e-03 1.000000e-01
      vertex   -3.787789e-03 -9.254872e-03 1.000000e-01
      vertex   3.473052e-03 -9.377521e-03 1.000000e-01
    endloop
  endfacet
  facet normal 0.000000e+00 0.000000e+00 1.000000e+00
    outer loop
      vertex   3.473052e-03 -9.377521e-03 1.000000e-01
      vertex   -3.787789e-03 -9.254872e-03 1.000000e-01
      vertex   -3.154353e-03 -9.489471e-03 1.000000e-01
    endloop
  endfacet
  facet normal 0.000000e+00 0.000000e+00 1.000000e+00
    outer loop
      vertex   3.473052e-03 -9.377521e-03 1.000000e-01
      vertex   -3.154353e-03 -9.489471e-03 1.000000e-01
      vertex   2.832055e-03 -9.590592e-03 1.000000e-01
    endloop
  endfacet
  facet normal 0.000000e+00 0.000000e+00 1.000000e+00
    outer loop
      vertex   2.832055e-03 -9.590592e-03 1.000000e-01
      vertex   -3.154353e-03 -9.489471e-03 1.000000e-01
      vertex   -2.506525e-03 -9.680771e-03 1.000000e-01
    endloop
  endfacet
  facet normal 0.000000e+00 0.000000e+00 1.000000e+00
    outer loop
      vertex   2.832055e-03 -9.590592e-03 1.000000e-01
      vertex   -2.506525e-03 -9.680771e-03 1.000000e-01
      vertex   2.178136e-03 -9.759904e-03 1.000000e-01
    endloop
  endfacet
  facet normal 0.000000e+00 0.000000e+00 1.000000e+00
    outer loop
      vertex   2.178136e-03 -9.759904e-03 1.000000e-01
      vertex   -2.506525e-03 -9.680771e-03 1.000000e-01
      vertex   -1.847261e-03 -9.827901e-03 1.000000e-01
    endloop
  endfacet
  facet normal 0.000000e+00 0.000000e+00 1.000000e+00
    outer loop
      vertex   2.178136e-03 -9.759904e-03 1.000000e-01
      vertex   -1.847261e-03 -9.827901e-03 1.000000e-01
      vertex   1.514278e-03 -9.884683e-03 1.000000e-01
    endloop
  endfacet
  facet normal 0.000000e+00 0.000000e+00 1.000000e+00
    outer loop
      vertex   1.514278e-03 -9.884683e-03 1.000000e-01
      vertex   -1.847261e-03 -9.827901e-03 1.000000e-01
      vertex   -1.179567e-03 -9.930187e-03 1.000000e-01
    endloop
  endfacet
  facet normal 0.000000e+00 0.000000e+00 1.000000e+00
    outer loop
      vertex   1.514278e-03 -9.884683e-03 1.000000e-01
      vertex   -1.179567e-03 -9.930187e-03 1.000000e-01
      vertex   8.435106e-04 -9.964361e-03 1.000000e-01
    endloop
  endfacet
  facet normal 0.000000e+00 0.000000e+00 1.000000e+00
    outer loop
      vertex   8.435106e-04 -9.964361e-03 1.000000e-01
      vertex   -1.179567e-03 -9.930187e-03 1.000000e-01
      vertex   -5.064917e-04 -9.987165e-03 1.000000e-01
    endloop
  endfacet
  facet normal 0.000000e+00 0.000000e+00 1.000000e+00
    outer loop
      vertex   8.435106e-04 -9.964361e-03 1.000000e-01
      vertex   -5.064917e-04 -9.987165e-03 1.000000e-01
      vertex   1.688948e-04 -9.998574e-03 1.000000e-01
    endloop
  endfacet
  facet normal 0.000000e+00 0.000000e+00 1.000000e+00
    outer loop
      vertex   -9.994295e-03 3.377414e-04 1.000000e-01
      vertex   9.977186e-03 6.750975e-04 1.000000e-01
      vertex   -9.948694e-03 1.011683e-03 1.000000e-01
    endloop
  endfacet
  facet normal -0.000000e+00 0.000000e+00 1.000000e+00
    outer loop
      vertex   -9.948694e-03 1.011683e-03 1.000000e-01
      vertex   9.977186e-03 6.750975e-04 1.000000e-01
      vertex   9.908848e-03 1.347115e-03 1.000000e-01
    endloop
  endfacet
  facet normal 0.000000e+00 0.000000e+00 1.000000e+00
    outer loop
      vertex   -9.948694e-03 1.011683e-03 1.000000e-01
      vertex   9.908848e-03 1.347115e-03 1.000000e-01
      vertex   -9.857698e-03 1.681009e-03 1.000000e-01
    endloop
  endfacet
  facet normal -0.000000e+00 0.000000e+00 1.000000e+00
    outer loop
      vertex   -9.857698e-03 1.681009e-03 1.000000e-01
      vertex   9.908848e-03 1.347115e-03 1.000000e-01
      vertex   9.795299e-03 2.012985e-03 1.000000e-01
    endloop
  endfacet
  facet normal 0.000000e+00 0.000000e+00 1.000000e+00
    outer loop
      vertex   -9.857698e-03 1.681009e-03 1.000000e-01
      vertex   9.795299e-03 2.012985e-03 1.000000e-01
      vertex   -9.721724e-03 2.342665e-03 1.000000e-01
    endloop
  endfacet
  facet normal -0.000000e+00 0.000000e+00 1.000000e+00
    outer loop
      vertex   -9.721724e-03 2.342665e-03 1.000000e-01
      vertex   9.795299e-03 2.012985e-03 1.000000e-01
      vertex   9.637057e-03 2.669671e-03 1.000000e-01
    endloop
  endfacet
  facet normal 0.000000e+00 0.000000e+00 1.000000e+00
    outer loop
      vertex   -9.721724e-03 2.342665e-03 1.000000e-01
      vertex   9.637057e-03 2.669671e-03 1.000000e-01
      vertex   9.434842e-03 3.314176e-03 1.000000e-01
    endloop
  endfacet
  facet normal 0.000000e+00 0.000000e+00 1.000000e+00
    outer loop
      vertex   9.434842e-03 3.314176e-03 1.000000e-01
      vertex   9.189578e-03 3.943559e-03 1.000000e-01
      vertex   -9.721724e-03 2.342665e-03 1.000000e-01
    endloop
  endfacet
  facet normal 0.000000e+00 0.000000e+00 1.000000e+00
    outer loop
      vertex   -9.721724e-03 2.342665e-03 1.000000e-01
      vertex   9.189578e-03 3.943559e-03 1.000000e-01
      vertex   8.902385e-03 4.554948e-03 1.000000e-01
    endloop
  endfacet
  facet normal 0.000000e+00 0.000000e+00 1.000000e+00
    outer loop
      vertex   -9.721724e-03 2.342665e-03 1.000000e-01
      vertex   8.902385e-03 4.554948e-03 1.000000e-01
      vertex   8.574572e-03 5.145554e-03 1.000000e-01
    endloop
  endfacet
  facet normal 0.000000e+00 0.000000e+00 1.000000e+00
    outer loop
      vertex   8.574572e-03 5.145554e-03 1.000000e-01
      vertex   8.207635e-03 5.712682e-03 1.000000e-01
      vertex   -9.721724e-03 2.342665e-03 1.000000e-01
    endloop
  endfacet
  facet normal 0.000000e+00 0.000000e+00 1.000000e+00
    outer loop
      vertex   -9.721724e-03 2.342665e-03 1.000000e-01
      vertex   8.207635e-03 5.712682e-03 1.000000e-01
      vertex   7.803248e-03 6.253744e-03 1.000000e-01
    endloop
  endfacet
  facet normal 0.000000e+00 0.000000e+00 1.000000e+00
    outer loop
      vertex   -9.721724e-03 2.342665e-03 1.000000e-01
      vertex   7.803248e-03 6.253744e-03 1.000000e-01
      vertex   7.363257e-03 6.766273e-03 1.000000e-01
    endloop
  endfacet
  facet normal 0.000000e+00 0.000000e+00 1.000000e+00
    outer loop
      vertex   7.363257e-03 6.766273e-03 1.000000e-01
      vertex   6.889669e-03 7.247928e-03 1.000000e-01
      vertex   -9.721724e-03 2.342665e-03 1.000000e-01
    endloop
  endfacet
  facet normal 0.000000e+00 0.000000e+00 1.000000e+00
    outer loop
      vertex   -9.721724e-03 2.342665e-03 1.000000e-01
      vertex   6.889669e-03 7.247928e-03 1.000000e-01
      vertex   6.384646e-03 7.696512e-03 1.000000e-01
    endloop
  endfacet
  facet normal 0.000000e+00 0.000000e+00 1.000000e+00
    outer loop
      vertex   -9.721724e-03 2.342665e-03 1.000000e-01
      vertex   6.384646e-03 7.696512e-03 1.000000e-01
      vertex   5.850490e-03 8.109980e-03 1.000000e-01
    endloop
  endfacet
  facet normal 0.000000e+00 0.000000e+00 1.000000e+00
    outer loop
      vertex   5.850490e-03 8.109980e-03 1.000000e-01
      vertex   5.289640e-03 8.486443e-03 1.000000e-01
      vertex   -9.721724e-03 2.342665e-03 1.000000e-01
    endloop
  endfacet
  facet normal 0.000000e+00 0.000000e+00 1.000000e+00
    outer loop
      vertex   -9.721724e-03 2.342665e-03 1.000000e-01
      vertex   5.289640e-03 8.486443e-03 1.000000e-01
      vertex   4.704655e-03 8.824184e-03 1.000000e-01
    endloop
  endfacet
  facet normal 0.000000e+00 0.000000e+00 1.000000e+00
    outer loop
      vertex   -9.721724e-03 2.342665e-03 1.000000e-01
      vertex   4.704655e-03 8.824184e-03 1.000000e-01
      vertex   4.098203e-03 9.121663e-03 1.000000e-01
    endloop
  endfacet
  facet normal 0.000000e+00 0.000000e+00 1.000000e+00
    outer loop
      vertex   4.098203e-03 9.121663e-03 1.000000e-01
      vertex   3.473052e-03 9.377521e-03 1.000000e-01
      vertex   -9.721724e-03 2.342665e-03 1.000000e-01
    endloop
  endfacet
  facet normal 0.000000e+00 0.000000e+00 1.000000e+00
    outer loop
      vertex   -9.721724e-03 2.342665e-03 1.000000e-01
      vertex   3.473052e-03 9.377521e-03 1.000000e-01
      vertex   2.832055e-03 9.590592e-03 1.000000e-01
    endloop
  endfacet
  facet normal 0.000000e+00 0.000000e+00 1.000000e+00
    outer loop
      vertex   -9.721724e-03 2.342665e-03 1.000000e-01
      vertex   2.832055e-03 9.590592e-03 1.000000e-01
      vertex   2.178136e-03 9.759904e-03 1.000000e-01
    endloop
  endfacet
  facet normal 0.000000e+00 0.000000e+00 1.000000e+00
    outer loop
      vertex   2.178136e-03 9.759904e-03 1.000000e-01
      vertex   1.514278e-03 9.884683e-03 1.000000e-01
      vertex   -9.721724e-03 2.342665e-03 1.000000e-01
    endloop
  endfacet
  facet normal 0.000000e+00 0.000000e+00 1.000000e+00
    outer loop
      vertex   -9.721724e-03 2.342665e-03 1.000000e-01
      vertex   1.514278e-03 9.884683e-03 1.000000e-01
      vertex   8.435106e-04 9.964361e-03 1.000000e-01
    endloop
  endfacet
  facet normal 0.000000e+00 0.000000e+00 1.000000e+00
    outer loop
      vertex   -9.721724e-03 2.342665e-03 1.000000e-01
      vertex   8.435106e-04 9.964361e-03 1.000000e-01
      vertex   1.688948e-04 9.998574e-03 1.000000e-01
    endloop
  endfacet
  facet normal 0.000000e+00 0.000000e+00 1.000000e+00
    outer loop
      vertex   1.688948e-04 9.998574e-03 1.000000e-01
      vertex   -5.064917e-04 9.987165e-03 1.000000e-01
      vertex   -9.721724e-03 2.342665e-03 1.000000e-01
    endloop
  endfacet
  facet normal 0.000000e+00 0.000000e+00 1.000000e+00
    outer loop
      vertex   -9.721724e-03 2.342665e-03 1.000000e-01
      vertex   -5.064917e-04 9.987165e-03 1.000000e-01
      vertex   -1.179567e-03 9.930187e-03 1.000000e-01
    endloop
  endfacet
  facet normal 0.000000e+00 0.000000e+00 1.000000e+00
    outer loop
      vertex   -9.721724e-03 2.342665e-03 1.000000e-01
      vertex   -1.179567e-03 9.930187e-03 1.000000e-01
      vertex   -1.847261e-03 9.827901e-03 1.000000e-01
    endloop
  endfacet
  facet normal 0.000000e+00 0.000000e+00 1.000000e+00
    outer loop
      vertex   -1.847261e-03 9.827901e-03 1.000000e-01
      vertex   -2.506525e-03 9.680771e-03 1.000000e-01
      vertex   -9.721724e-03 2.342665e-03 1.000000e-01
    endloop
  endfacet
  facet normal 0.000000e+00 0.000000e+00 1.000000e+00
    outer loop
      vertex   -9.721724e-03 2.342665e-03 1.000000e-01
      vertex   -2.506525e-03 9.680771e-03 1.000000e-01
      vertex   -3.154353e-03 9.489471e-03 1.000000e-01
    endloop
  endfacet
  facet normal 0.000000e+00 0.000000e+00 1.000000e+00
    outer loop
      vertex   -9.721724e-03 2.342665e-03 1.000000e-01
      vertex   -3.154353e-03 9.489471e-03 1.000000e-01
      vertex   -3.787789e-03 9.254872e-03 1.000000e-01
    endloop
  endfacet
  facet normal 0.000000e+00 0.000000e+00 1.000000e+00
    outer loop
      vertex   -3.787789e-03 9.254872e-03 1.000000e-01
      vertex   -4.403942e-03 8.978046e-03 1.000000e-01
      vertex   -9.721724e-03 2.342665e-03 1.000000e-01
    endloop
  endfacet
  facet normal 0.000000e+00 0.000000e+00 1.000000e+00
    outer loop
      vertex   -9.721724e-03 2.342665e-03 1.000000e-01
      vertex   -4.403942e-03 8.978046e-03 1.000000e-01
      vertex   -5.000000e-03 8.660254e-03 1.000000e-01
    endloop
  endfacet
  facet normal 0.000000e+00 0.000000e+00 1.000000e+00
    outer loop
      vertex   -9.721724e-03 2.342665e-03 1.000000e-01
      vertex   -5.000000e-03 8.660254e-03 1.000000e-01
      vertex   -5.573245e-03 8.302948e-03 1.000000e-01
    endloop
  endfacet
  facet normal 0.000000e+00 0.000000e+00 1.000000e+00
    outer loop
      vertex   -5.573245e-03 8.302948e-03 1.000000e-01
      vertex   -6.121060e-03 7.907757e-03 1.000000e-01
      vertex   -9.721724e-03 2.342665e-03 1.000000e-01
    endloop
  endfacet
  facet normal 0.000000e+00 0.000000e+00 1.000000e+00
    outer loop
      vertex   -9.721724e-03 2.342665e-03 1.000000e-01
      vertex   -6.121060e-03 7.907757e-03 1.000000e-01
      vertex   -6.640946e-03 7.476485e-03 1.000000e-01
    endloop
  endfacet
  facet normal 0.000000e+00 0.000000e+00 1.000000e+00
    outer loop
      vertex   -9.721724e-03 2.342665e-03 1.000000e-01
      vertex   -6.640946e-03 7.476485e-03 1.000000e-01
      vertex   -7.130531e-03 7.011100e-03 1.000000e-01
    endloop
  endfacet
  facet normal 0.000000e+00 0.000000e+00 1.000000e+00
    outer loop
      vertex   -7.130531e-03 7.011100e-03 1.000000e-01
      vertex   -7.587581e-03 6.513725e-03 1.000000e-01
      vertex   -9.721724e-03 2.342665e-03 1.000000e-01
    endloop
  endfacet
  facet normal 0.000000e+00 0.000000e+00 1.000000e+00
    outer loop
      vertex   -9.721724e-03 2.342665e-03 1.000000e-01
      vertex   -7.587581e-03 6.513725e-03 1.000000e-01
      vertex   -8.010011e-03 5.986629e-03 1.000000e-01
    endloop
  endfacet
  facet normal 0.000000e+00 0.000000e+00 1.000000e+00
    outer loop
      vertex   -9.721724e-03 2.342665e-03 1.000000e-01
      vertex   -8.010011e-03 5.986629e-03 1.000000e-01
      vertex   -8.395893e-03 5.432217e-03 1.000000e-01
    endloop
  endfacet
  facet normal 0.000000e+00 0.000000e+00 1.000000e+00
    outer loop
      vertex   -8.395893e-03 5.432217e-03 1.000000e-01
      vertex   -8.743466e-03 4.853020e-03 1.000000e-01
      vertex   -9.721724e-03 2.342665e-03 1.000000e-01
    endloop
  endfacet
  facet normal 0.000000e+00 0.000000e+00 1.000000e+00
    outer loop
      vertex   -9.721724e-03 2.342665e-03 1.000000e-01
      vertex   -8.743466e-03 4.853020e-03 1.000000e-01
      vertex   -9.051145e-03 4.251679e-03 1.000000e-01
    endloop
  endfacet
  facet normal 0.000000e+00 0.000000e+00 1.000000e+00
    outer loop
      vertex   -9.721724e-03 2.342665e-03 1.000000e-01
      vertex   -9.051145e-03 4.251679e-03 1.000000e-01
      vertex   -9.317526e-03 3.630939e-03 1.000000e-01
    endloop
  endfacet
  facet normal 0.000000e+00 0.000000e+00 1.000000e+00
    outer loop
      vertex   -9.317526e-03 3.630939e-03 1.000000e-01
      vertex   -9.541392e-03 2.993631e-03 1.000000e-01
      vertex   -9.721724e-03 2.342665e-03 1.000000e-01
    endloop
  endfacet
  facet normal 0.000000e+00 0.000000e+00 -1.000000e+00
    outer loop
      vertex   9.977186e-03 -6.750975e-04 0.000000e+00
      vertex   -9.994295e-03 -3.377414e-04 0.000000e+00
      vertex   1.000000e-02 0.000000e+00 0.000000e+00
    endloop
  endfacet
  facet normal -0.000000e+00 0.000000e+00 -1.000000e+00
    outer loop
      vertex   1.000000e-02 0.000000e+00 0.000000e+00
      vertex   -9.994295e-03 -3.377414e-04 0.000000e+00
      vertex   -9.994295e-03 3.377414e-04 0.000000e+00
    endloop
  endfacet
  facet normal 0.000000e+00 0.000000e+00 -1.000000e+00
    outer loop
      vertex   1.000000e-02 0.000000e+00 0.000000e+00
      vertex   -9.994295e-03 3.377414e-04 0.000000e+00
      vertex   9.977186e-03 6.750975e-04 0.000000e+00
    endloop
  endfacet
  facet normal -0.000000e+00 0.000000e+00 -1.000000e+00
    outer loop
      vertex   9.977186e-03 6.750975e-04 0.000000e+00
      vertex   -9.994295e-03 3.377414e-04 0.000000e+00
      vertex   -9.948694e-03 1.011683e-03 0.000000e+00
    endloop
  endfacet
  facet normal 0.000000e+00 0.000000e+00 -1.000000e+00
    outer loop
      vertex   9.977186e-03 6.750975e-04 0.000000e+00
      vertex   -9.948694e-03 1.011683e-03 0.000000e+00
      vertex   9.908848e-03 1.347115e-03 0.000000e+00
    endloop
  endfacet
  facet normal -0.000000e+00 0.000000e+00 -1.000000e+00
    outer loop
      vertex   9.908848e-03 1.347115e-03 0.000000e+00
      vertex   -9.948694e-03 1.011683e-03 0.000000e+00
      vertex   -9.857698e-03 1.681009e-03 0.000000e+00
    endloop
  endfacet
  facet normal 0.000000e+00 0.000000e+00 -1.000000e+00
    outer loop
      vertex   9.908848e-03 1.347115e-03 0.000000e+00
      vertex   -9.857698e-03 1.681009e-03 0.000000e+00
      vertex   9.795299e-03 2.012985e-03 0.000000e+00
    endloop
  endfacet
  facet normal -0.000000e+00 0.000000e+00 -1.000000e+00
    outer loop
      vertex   9.795299e-03 2.012985e-03 0.000000e+00
      vertex   -9.857698e-03 1.681009e-03 0.000000e+00
      vertex   -9.721724e-03 2.342665e-03 0.000000e+00
    endloop
  endfacet
  facet normal 0.000000e+00 0.000000e+00 -1.000000e+00
    outer loop
      vertex   9.795299e-03 2.012985e-03 0.000000e+00
      vertex   -9.721724e-03 2.342665e-03 0.000000e+00
      vertex   9.637057e-03 2.669671e-03 0.000000e+00
    endloop
  endfacet
  facet normal -0.000000e+00 0.000000e+00 -1.000000e+00
    outer loop
      vertex   9.637057e-03 2.669671e-03 0.000000e+00
      vertex   -9.721724e-03 2.342665e-03 0.000000e+00
      vertex   9.434842e-03 3.314176e-03 0.000000e+00
    endloop
  endfacet
  facet normal -0.000000e+00 0.000000e+00 -1.000000e+00
    outer loop
      vertex   9.434842e-03 3.314176e-03 0.000000e+00
      vertex   -9.721724e-03 2.342665e-03 0.000000e+00
      vertex   9.189578e-03 3.943559e-03 0.000000e+00
    endloop
  endfacet
  facet normal -0.000000e+00 0.000000e+00 -1.000000e+00
    outer loop
      vertex   9.189578e-03 3.943559e-03 0.000000e+00
      vertex   -9.721724e-03 2.342665e-03 0.000000e+00
      vertex   8.902385e-03 4.554948e-03 0.000000e+00
    endloop
  endfacet
  facet normal -0.000000e+00 0.000000e+00 -1.000000e+00
    outer loop
      vertex   8.902385e-03 4.554948e-03 0.000000e+00
      vertex   -9.721724e-03 2.342665e-03 0.000000e+00
      vertex   8.574572e-03 5.145554e-03 0.000000e+00
    endloop
  endfacet
  facet normal -0.000000e+00 0.000000e+00 -1.000000e+00
    outer loop
      vertex   8.574572e-03 5.145554e-03 0.000000e+00
      vertex   -9.721724e-03 2.342665e-03 0.000000e+00
      vertex   8.207635e-03 5.712682e-03 0.000000e+00
    endloop
  endfacet
  facet normal -0.000000e+00 0.000000e+00 -1.000000e+00
    outer loop
      vertex   8.207635e-03 5.712682e-03 0.000000e+00
      vertex   -9.721724e-03 2.342665e-03 0.000000e+00
      vertex   7.803248e-03 6.253744e-03 0.000000e+00
    endloop
  endfacet
  facet normal -0.000000e+00 0.000000e+00 -1.000000e+00
    outer loop
      vertex   7.803248e-03 6.253744e-03 0.000000e+00
      vertex   -9.721724e-03 2.342665e-03 0.000000e+00
      vertex   7.363257e-03 6.766273e-03 0.000000e+00
    endloop
  endfacet
  facet normal -0.000000e+00 0.000000e+00 -1.000000e+00
    outer loop
      vertex   7.363257e-03 6.766273e-03 0.000000e+00
      vertex   -9.721724e-03 2.342665e-03 0.000000e+00
      vertex   6.889669e-03 7.247928e-03 0.000000e+00
    endloop
  endfacet
  facet normal -0.000000e+00 0.000000e+00 -1.000000e+00
    outer loop
      vertex   6.889669e-03 7.247928e-03 0.000000e+00
      vertex   -9.721724e-03 2.342665e-03 0.000000e+00
      vertex   6.384646e-03 7.696512e-03 0.000000e+00
    endloop
  endfacet
  facet normal -0.000000e+00 0.000000e+00 -1.000000e+00
    outer loop
      vertex   6.384646e-03 7.696512e-03 0.000000e+00
      vertex   -9.721724e-03 2.342665e-03 0.000000e+00
      vertex   5.850490e-03 8.109980e-03 0.000000e+00
    endloop
  endfacet
  facet normal -0.000000e+00 0.000000e+00 -1.000000e+00
    outer loop
      vertex   5.850490e-03 8.109980e-03 0.000000e+00
      vertex   -9.721724e-03 2.342665e-03 0.000000e+00
      vertex   5.289640e-03 8.486443e-03 0.000000e+00
    endloop
  endfacet
  facet normal -0.000000e+00 0.000000e+00 -1.000000e+00
    outer loop
      vertex   5.289640e-03 8.486443e-03 0.000000e+00
      vertex   -9.721724e-03 2.342665e-03 0.000000e+00
      vertex   4.704655e-03 8.824184e-03 0.000000e+00
    endloop
  endfacet
  facet normal -0.000000e+00 0.000000e+00 -1.000000e+00
    outer loop
      vertex   4.704655e-03 8.824184e-03 0.000000e+00
      vertex   -9.721724e-03 2.342665e-03 0.000000e+00
      vertex   4.098203e-03 9.121663e-03 0.000000e+00
    endloop
  endfacet
  facet normal -0.000000e+00 0.000000e+00 -1.000000e+00
    outer loop
      vertex   4.098203e-03 9.121663e-03 0.000000e+00
      vertex   -9.721724e-03 2.342665e-03 0.000000e+00
      vertex   3.473052e-03 9.377521e-03 0.000000e+00
    endloop
  endfacet
  facet normal -0.000000e+00 0.000000e+00 -1.000000e+00
    outer loop
      vertex   3.473052e-03 9.377521e-03 0.000000e+00
      vertex   -9.721724e-03 2.342665e-03 0.000000e+00
      vertex   2.832055e-03 9.590592e-03 0.000000e+00
    endloop
  endfacet
  facet normal -0.000000e+00 0.000000e+00 -1.000000e+00
    outer loop
      vertex   2.832055e-03 9.590592e-03 0.000000e+00
      vertex   -9.721724e-03 2.342665e-03 0.000000e+00
      vertex   2.178136e-03 9.759904e-03 0.000000e+00
    endloop
  endfacet
  facet normal -0.000000e+00 0.000000e+00 -1.000000e+00
    outer loop
      vertex   2.178136e-03 9.759904e-03 0.000000e+00
      vertex   -9.721724e-03 2.342665e-03 0.000000e+00
      vertex   1.514278e-03 9.884683e-03 0.000000e+00
    endloop
  endfacet
  facet normal -0.000000e+00 0.000000e+00 -1.000000e+00
    outer loop
      vertex   1.514278e-03 9.884683e-03 0.000000e+00
      vertex   -9.721724e-03 2.342665e-03 0.000000e+00
      vertex   8.435106e-04 9.964361e-03 0.000000e+00
    endloop
  endfacet
  facet normal -0.000000e+00 0.000000e+00 -1.000000e+00
    outer loop
      vertex   8.435106e-04 9.964361e-03 0.000000e+00
      vertex   -9.721724e-03 2.342665e-03 0.000000e+00
      vertex   1.688948e-04 9.998574e-03 0.000000e+00
    endloop
  endfacet
  facet normal 0.000000e+00 0.000000e+00 -1.000000e+00
    outer loop
      vertex   1.688948e-04 9.998574e-03 0.000000e+00
      vertex   -9.721724e-03 2.342665e-03 0.000000e+00
      vertex   -5.064917e-04 9.987165e-03 0.000000e+00
    endloop
  endfacet
  facet normal 0.000000e+00 0.000000e+00 -1.000000e+00
    outer loop
      vertex   -5.064917e-04 9.987165e-03 0.000000e+00
      vertex   -9.721724e-03 2.342665e-03 0.000000e+00
      vertex   -1.179567e-03 9.930187e-03 0.000000e+00
    endloop
  endfacet
  facet normal 0.000000e+00 0.000000e+00 -1.000000e+00
    outer loop
      vertex   -1.179567e-03 9.930187e-03 0.000000e+00
      vertex   -9.721724e-03 2.342665e-03 0.000000e+00
      vertex   -1.847261e-03 9.827901e-03 0.000000e+00
    endloop
  endfacet
  facet normal 0.000000e+00 0.000000e+00 -1.000000e+00
    outer loop
      vertex   -1.847261e-03 9.827901e-03 0.000000e+00
      vertex   -9.721724e-03 2.342665e-03 0.000000e+00
      vertex   -2.506525e-03 9.680771e-03 0.000000e+00
    endloop
  endfacet
  facet normal 0.000000e+00 0.000000e+00 -1.000000e+00
    outer loop
      vertex   -2.506525e-03 9.680771e-03 0.000000e+00
      vertex   -9.721724e-03 2.342665e-03 0.000000e+00
      vertex   -3.154353e-03 9.489471e-03 0.000000e+00
    endloop
  endfacet
  facet normal 0.000000e+00 0.000000e+00 -1.000000e+00
    outer loop
      vertex   -3.154353e-03 9.489471e-03 0.000000e+00
      vertex   -9.721724e-03 2.342665e-03 0.000000e+00
      vertex   -3.787789e-03 9.254872e-03 0.000000e+00
    endloop
  endfacet
  facet normal 0.000000e+00 0.000000e+00 -1.000000e+00
    outer loop
      vertex   -3.787789e-03 9.254872e-03 0.000000e+00
      vertex   -9.721724e-03 2.342665e-03 0.000000e+00
      vertex   -4.403942e-03 8.978046e-03 0.000000e+00
    endloop
  endfacet
  facet normal 0.000000e+00 0.000000e+00 -1.000000e+00
    outer loop
      vertex   -4.403942e-03 8.978046e-03 0.000000e+00
      vertex   -9.721724e-03 2.342665e-03 0.000000e+00
      vertex   -5.000000e-03 8.660254e-03 0.000000e+00
    endloop
  endfacet
  facet normal 0.000000e+00 0.000000e+00 -1.000000e+00
    outer loop
      vertex   -5.000000e-03 8.660254e-03 0.000000e+00
      vertex   -9.721724e-03 2.342665e-03 0.000000e+00
      vertex   -5.573245e-03 8.302948e-03 0.000000e+00
    endloop
  endfacet
  facet normal 0.000000e+00 0.000000e+00 -1.000000e+00
    outer loop
      vertex   -5.573245e-03 8.302948e-03 0.000000e+00
      vertex   -9.721724e-03 2.342665e-03 0.000000e+00
      vertex   -6.121060e-03 7.907757e-03 0.000000e+00
    endloop
  endfacet
  facet normal 0.000000e+00 0.000000e+00 -1.000000e+00
    outer loop
      vertex   -6.121060e-03 7.907757e-03 0.000000e+00
      vertex   -9.721724e-03 2.342665e-03 0.000000e+00
      vertex   -6.640946e-03 7.476485e-03 0.000000e+00
    endloop
  endfacet
  facet normal 0.000000e+00 0.000000e+00 -1.000000e+00
    outer loop
      vertex   -6.640946e-03 7.476485e-03 0.000000e+00
      vertex   -9.721724e-03 2.342665e-03 0.000000e+00
      vertex   -7.130531e-03 7.011100e-03 0.000000e+00
    endloop
  endfacet
  facet normal 0.000000e+00 0.000000e+00 -1.000000e+00
    outer loop
      vertex   -7.130531e-03 7.011100e-03 0.000000e+00
      vertex   -9.721724e-03 2.342665e-03 0.000000e+00
      vertex   -7.587581e-03 6.513725e-03 0.000000e+00
    endloop
  endfacet
  facet normal 0.000000e+00 0.000000e+00 -1.000000e+00
    outer loop
      vertex   -7.587581e-03 6.513725e-03 0.000000e+00
      vertex   -9.721724e-03 2.342665e-03 0.000000e+00
      vertex   -8.010011e-03 5.986629e-03 0.000000e+00
    endloop
  endfacet
  facet normal 0.000000e+00 0.000000e+00 -1.000000e+00
    outer loop
      vertex   -8.010011e-03 5.986629e-03 0.000000e+00
      vertex   -9.721724e-03 2.342665e-03 0.000000e+00
      vertex   -8.395893e-03 5.432217e-03 0.000000e+00
    endloop
  endfacet
  facet normal 0.000000e+00 0.000000e+00 -1.000000e+00
    outer loop
      vertex   -8.395893e-03 5.432217e-03 0.000000e+00
      vertex   -9.721724e-03 2.342665e-03 0.000000e+00
      vertex   -8.743466e-03 4.853020e-03 0.000000e+00
    endloop
  endfacet
  facet normal 0.000000e+00 0.000000e+00 -1.000000e+00
    outer loop
      vertex   -8.743466e-03 4.853020e-03 0.000000e+00
      vertex   -9.721724e-03 2.342665e-03 0.000000e+00
      vertex   -9.051145e-03 4.251679e-03 0.000000e+00
    endloop
  endfacet
  facet normal 0.000000e+00 0.000000e+00 -1.000000e+00
    outer loop
      vertex   -9.051145e-03 4.251679e-03 0.000000e+00
      vertex   -9.721724e-03 2.342665e-03 0.000000e+00
      vertex   -9.317526e-03 3.630939e-03 0.000000e+00
    endloop
  endfacet
  facet normal 0.000000e+00 0.000000e+00 -1.000000e+00
    outer loop
      vertex   -9.317526e-03 3.630939e-03 0.000000e+00
      vertex   -9.721724e-03 2.342665e-03 0.000000e+00
      vertex   -9.541392e-03 2.993631e-03 0.000000e+00
    endloop
  endfacet
  facet normal 0.000000e+00 0.000000e+00 -1.000000e+00
    outer loop
      vertex   -9.994295e-03 -3.377414e-04 0.000000e+00
      vertex   9.977186e-03 -6.750975e-04 0.000000e+00
      vertex   -9.948694e-03 -1.011683e-03 0.000000e+00
    endloop
  endfacet
  facet normal 0.000000e+00 0.000000e+00 -1.000000e+00
    outer loop
      vertex   -9.948694e-03 -1.011683e-03 0.000000e+00
      vertex   9.977186e-03 -6.750975e-04 0.000000e+00
      vertex   9.908848e-03 -1.347115e-03 0.000000e+00
    endloop
  endfacet
  facet normal 0.000000e+00 0.000000e+00 -1.000000e+00
    outer loop
      vertex   -9.948694e-03 -1.011683e-03 0.000000e+00
      vertex   9.908848e-03 -1.347115e-03 0.000000e+00
      vertex   -9.857698e-03 -1.681009e-03 0.000000e+00
    endloop
  endfacet
  facet normal 0.000000e+00 0.000000e+00 -1.000000e+00
    outer loop
      vertex   -9.857698e-03 -1.681009e-03 0.000000e+00
      vertex   9.908848e-03 -1.347115e-03 0.000000e+00
      vertex   9.795299e-03 -2.012985e-03 0.000000e+00
    endloop
  endfacet
  facet normal 0.000000e+00 0.000000e+00 -1.000000e+00
    outer loop
      vertex   -9.857698e-03 -1.681009e-03 0.000000e+00
      vertex   9.795299e-03 -2.012985e-03 0.000000e+00
      vertex   -9.721724e-03 -2.342665e-03 0.000000e+00
    endloop
  endfacet
  facet normal 0.000000e+00 0.000000e+00 -1.000000e+00
    outer loop
      vertex   -9.721724e-03 -2.342665e-03 0.000000e+00
      vertex   9.795299e-03 -2.012985e-03 0.000000e+00
      vertex   9.637057e-03 -2.669671e-03 0.000000e+00
    endloop
  endfacet
  facet normal 0.000000e+00 0.000000e+00 -1.000000e+00
    outer loop
      vertex   -9.721724e-03 -2.342665e-03 0.000000e+00
      vertex   9.637057e-03 -2.669671e-03 0.000000e+00
      vertex   -9.541392e-03 -2.993631e-03 0.000000e+00
    endloop
  endfacet
  facet normal 0.000000e+00 0.000000e+00 -1.000000e+00
    outer loop
      vertex   -9.541392e-03 -2.993631e-03 0.000000e+00
      vertex   9.637057e-03 -2.669671e-03 0.000000e+00
      vertex   9.434842e-03 -3.314176e-03 0.000000e+00
    endloop
  endfacet
  facet normal 0.000000e+00 0.000000e+00 -1.000000e+00
    outer loop
      vertex   -9.541392e-03 -2.993631e-03 0.000000e+00
      vertex   9.434842e-03 -3.314176e-03 0.000000e+00
      vertex   -9.317526e-03 -3.630939e-03 0.000000e+00
    endloop
  endfacet
  facet normal 0.000000e+00 0.000000e+00 -1.000000e+00
    outer loop
      vertex   -9.317526e-03 -3.630939e-03 0.000000e+00
      vertex   9.434842e-03 -3.314176e-03 0.000000e+00
      vertex   9.189578e-03 -3.943559e-03 0.000000e+00
    endloop
  endfacet
  facet normal 0.000000e+00 0.000000e+00 -1.000000e+00
    outer loop
      vertex   -9.317526e-03 -3.630939e-03 0.000000e+00
      vertex   9.189578e-03 -3.943559e-03 0.000000e+00
      vertex   -9.051145e-03 -4.251679e-03 0.000000e+00
    endloop
  endfacet
  facet normal 0.000000e+00 0.000000e+00 -1.000000e+00
    outer loop
      vertex   -9.051145e-03 -4.251679e-03 0.000000e+00
      vertex   9.189578e-03 -3.943559e-03 0.000000e+00
      vertex   8.902385e-03 -4.554948e-03 0.000000e+00
    endloop
  endfacet
  facet normal 0.000000e+00 0.000000e+00 -1.000000e+00
    outer loop
      vertex   -9.051145e-03 -4.251679e-03 0.000000e+00
      vertex   8.902385e-03 -4.554948e-03 0.000000e+00
      vertex   -8.743466e-03 -4.853020e-03 0.000000e+00
    endloop
  endfacet
  facet normal 0.000000e+00 0.000000e+00 -1.000000e+00
    outer loop
      vertex   -8.743466e-03 -4.853020e-03 0.000000e+00
      vertex   8.902385e-03 -4.554948e-03 0.000000e+00
      vertex   8.574572e-03 -5.145554e-03 0.000000e+00
    endloop
  endfacet
  facet normal 0.000000e+00 0.000000e+00 -1.000000e+00
    outer loop
      vertex   -8.743466e-03 -4.853020e-03 0.000000e+00
      vertex   8.574572e-03 -5.145554e-03 0.000000e+00
      vertex   -8.395893e-03 -5.432217e-03 0.000000e+00
    endloop
  endfacet
  facet normal 0.000000e+00 0.000000e+00 -1.000000e+00
    outer loop
      vertex   -8.395893e-03 -5.432217e-03 0.000000e+00
      vertex   8.574572e-03 -5.145554e-03 0.000000e+00
      vertex   8.207635e-03 -5.712682e-03 0.000000e+00
    endloop
  endfacet
  facet normal 0.000000e+00 0.000000e+00 -1.000000e+00
    outer loop
      vertex   -8.395893e-03 -5.432217e-03 0.000000e+00
      vertex   8.207635e-03 -5.712682e-03 0.000000e+00
      vertex   -8.010011e-03 -5.986629e-03 0.000000e+00
    endloop
  endfacet
  facet normal 0.000000e+00 0.000000e+00 -1.000000e+00
    outer loop
      vertex   -8.010011e-03 -5.986629e-03 0.000000e+00
      vertex   8.207635e-03 -5.712682e-03 0.000000e+00
      vertex   7.803248e-03 -6.253744e-03 0.000000e+00
    endloop
  endfacet
  facet normal 0.000000e+00 0.000000e+00 -1.000000e+00
    outer loop
      vertex   -8.010011e-03 -5.986629e-03 0.000000e+00
      vertex   7.803248e-03 -6.253744e-03 0.000000e+00
      vertex   -7.587581e-03 -6.513725e-03 0.000000e+00
    endloop
  endfacet
  facet normal 0.000000e+00 0.000000e+00 -1.000000e+00
    outer loop
      vertex   -7.587581e-03 -6.513725e-03 0.000000e+00
      vertex   7.803248e-03 -6.253744e-03 0.000000e+00
      vertex   7.363257e-03 -6.766273e-03 0.000000e+00
    endloop
  endfacet
  facet normal 0.000000e+00 0.000000e+00 -1.000000e+00
    outer loop
      vertex   -7.587581e-03 -6.513725e-03 0.000000e+00
      vertex   7.363257e-03 -6.766273e-03 0.000000e+00
      vertex   -7.130531e-03 -7.011100e-03 0.000000e+00
    endloop
  endfacet
  facet normal 0.000000e+00 0.000000e+00 -1.000000e+00
    outer loop
      vertex   -7.130531e-03 -7.011100e-03 0.000000e+00
      vertex   7.363257e-03 -6.766273e-03 0.000000e+00
      vertex   6.889669e-03 -7.247928e-03 0.000000e+00
    endloop
  endfacet
  facet normal 0.000000e+00 0.000000e+00 -1.000000e+00
    outer loop
      vertex   -7.130531e-03 -7.011100e-03 0.000000e+00
      vertex   6.889669e-03 -7.247928e-03 0.000000e+00
      vertex   -6.640946e-03 -7.476485e-03 0.000000e+00
    endloop
  endfacet
  facet normal 0.000000e+00 0.000000e+00 -1.000000e+00
    outer loop
      vertex   -6.640946e-03 -7.476485e-03 0.000000e+00
      vertex   6.889669e-03 -7.247928e-03 0.000000e+00
      vertex   6.384646e-03 -7.696512e-03 0.000000e+00
    endloop
  endfacet
  facet normal 0.000000e+00 0.000000e+00 -1.000000e+00
    outer loop
      vertex   -6.640946e-03 -7.476485e-03 0.000000e+00
      vertex   6.384646e-03 -7.696512e-03 0.000000e+00
      vertex   -6.121060e-03 -7.907757e-03 0.000000e+00
    endloop
  endfacet
  facet normal 0.000000e+00 0.000000e+00 -1.000000e+00
    outer loop
      vertex   -6.121060e-03 -7.907757e-03 0.000000e+00
      vertex   6.384646e-03 -7.696512e-03 0.000000e+00
      vertex   5.850490e-03 -8.109980e-03 0.000000e+00
    endloop
  endfacet
  facet normal 0.000000e+00 0.000000e+00 -1.000000e+00
    outer loop
      vertex   -6.121060e-03 -7.907757e-03 0.000000e+00
      vertex   5.850490e-03 -8.109980e-03 0.000000e+00
      vertex   -5.573245e-03 -8.302948e-03 0.000000e+00
    endloop
  endfacet
  facet normal 0.000000e+00 0.000000e+00 -1.000000e+00
    outer loop
      vertex   -5.573245e-03 -8.302948e-03 0.000000e+00
      vertex   5.850490e-03 -8.109980e-03 0.000000e+00
      vertex   5.289640e-03 -8.486443e-03 0.000000e+00
    endloop
  endfacet
  facet normal 0.000000e+00 0.000000e+00 -1.000000e+00
    outer loop
      vertex   -5.573245e-03 -8.302948e-03 0.000000e+00
      vertex   5.289640e-03 -8.486443e-03 0.000000e+00
      vertex   -5.000000e-03 -8.660254e-03 0.000000e+00
    endloop
  endfacet
  facet normal 0.000000e+00 0.000000e+00 -1.000000e+00
    outer loop
      vertex   -5.000000e-03 -8.660254e-03 0.000000e+00
      vertex   5.289640e-03 -8.486443e-03 0.000000e+00
      vertex   4.704655e-03 -8.824184e-03 0.000000e+00
    endloop
  endfacet
  facet normal 0.000000e+00 0.000000e+00 -1.000000e+00
    outer loop
      vertex   -5.000000e-03 -8.660254e-03 0.000000e+00
      vertex   4.704655e-03 -8.824184e-03 0.000000e+00
      vertex   -4.403942e-03 -8.978046e-03 0.000000e+00
    endloop
  endfacet
  facet normal 0.000000e+00 0.000000e+00 -1.000000e+00
    outer loop
      vertex   -4.403942e-03 -8.978046e-03 0.000000e+00
      vertex   4.704655e-03 -8.824184e-03 0.000000e+00
      vertex   4.098203e-03 -9.121663e-03 0.000000e+00
    endloop
  endfacet
  facet normal 0.000000e+00 0.000000e+00 -1.000000e+00
    outer loop
      vertex   -4.403942e-03 -8.978046e-03 0.000000e+00
      vertex   4.098203e-03 -9.121663e-03 0.000000e+00
      vertex   -3.787789e-03 -9.254872e-03 0.000000e+00
    endloop
  endfacet
  facet normal 0.000000e+00 0.000000e+00 -1.000000e+00
    outer loop
      vertex   -3.787789e-03 -9.254872e-03 0.000000e+00
      vertex   4.098203e-03 -9.121663e-03 0.000000e+00
      vertex   3.473052e-03 -9.377521e-03 0.000000e+00
    endloop
  endfacet
  facet normal 0.000000e+00 0.000000e+00 -1.000000e+00
    outer loop
      vertex   -3.787789e-03 -9.254872e-03 0.000000e+00
      vertex   3.473052e-03 -9.377521e-03 0.000000e+00
      vertex   -3.154353e-03 -9.489471e-03 0.000000e+00
    endloop
  endfacet
  facet normal 0.000000e+00 0.000000e+00 -1.000000e+00
    outer loop
      vertex   -3.154353e-03 -9.489471e-03 0.000000e+00
      vertex   3.473052e-03 -9.377521e-03 0.000000e+00
      vertex   2.832055e-03 -9.590592e-03 0.000000e+00
    endloop
  endfacet
  facet normal 0.000000e+00 0.000000e+00 -1.000000e+00
    outer loop
      vertex   -3.154353e-03 -9.489471e-03 0.000000e+00
      vertex   2.832055e-03 -9.590592e-03 0.000000e+00
      vertex   -2.506525e-03 -9.680771e-03 0.000000e+00
    endloop
  endfacet
  facet normal 0.000000e+00 0.000000e+00 -1.000000e+00
    outer loop
      vertex   -2.506525e-03 -9.680771e-03 0.000000e+00
      vertex   2.832055e-03 -9.590592e-03 0.000000e+00
      vertex   2.178136e-03 -9.759904e-03 0.000000e+00
    endloop
  endfacet
  facet normal 0.000000e+00 0.000000e+00 -1.000000e+00
    outer loop
      vertex   -2.506525e-03 -9.680771e-03 0.000000e+00
      vertex   2.178136e-03 -9.759904e-03 0.000000e+00
      vertex   -1.847261e-03 -9.827901e-03 0.000000e+00
    endloop
  endfacet
  facet normal 0.000000e+00 0.000000e+00 -1.000000e+00
    outer loop
      vertex   -1.847261e-03 -9.827901e-03 0.000000e+00
      vertex   2.178136e-03 -9.759904e-03 0.000000e+00
      vertex   1.514278e-03 -9.884683e-03 0.000000e+00
    endloop
  endfacet
  facet normal 0.000000e+00 0.000000e+00 -1.000000e+00
    outer loop
      vertex   -1.847261e-03 -9.827901e-03 0.000000e+00
      vertex   1.514278e-03 -9.884683e-03 0.000000e+00
      vertex   -1.179567e-03 -9.930187e-03 0.000000e+00
    endloop
  endfacet
  facet normal 0.000000e+00 0.000000e+00 -1.000000e+00
    outer loop
      vertex   -1.179567e-03 -9.930187e-03 0.000000e+00
      vertex   1.514278e-03 -9.884683e-03 0.000000e+00
      vertex   8.435106e-04 -9.964361e-03 0.000000e+00
    endloop
  endfacet
  facet normal 0.000000e+00 0.000000e+00 -1.000000e+00
    outer loop
      vertex   -1.179567e-03 -9.930187e-03 0.000000e+00
      vertex   8.435106e-04 -9.964361e-03 0.000000e+00
      vertex   -5.064917e-04 -9.987165e-03 0.000000e+00
    endloop
  endfacet
  facet normal 0.000000e+00 0.000000e+00 -1.000000e+00
    outer loop
      vertex   -5.064917e-04 -9.987165e-03 0.000000e+00
      vertex   8.435106e-04 -9.964361e-03 0.000000e+00
      vertex   1.688948e-04 -9.998574e-03 0.000000e+00
    endloop
  endfacet
endsolid
